<?xml version="1.0" encoding="UTF-8"?>
<svg id="Layer_2" xmlns="http://www.w3.org/2000/svg" viewBox="0 0 209.84 199.76">
  <g id="Layer_1-2" data-name="Layer_1">
    <path d="M169.8,199.76c-8.96-6.52-17.31-12.6-25.68-18.68-12.39-9-24.81-17.97-37.16-27.03-1.55-1.14-2.54-1.21-4.14-.04-20.07,14.68-40.2,29.28-60.32,43.89-.69.5-1.42.96-2.59,1.74,2.28-7.03,4.4-13.55,6.51-20.08,5.85-18,11.67-36.01,17.58-53.99.54-1.65.31-2.52-1.15-3.57-20.16-14.56-40.27-29.19-60.38-43.8-.69-.5-1.35-1.04-2.49-1.92,1.38-.08,2.16-.16,2.93-.16,24.79,0,49.58-.03,74.37.06,2.16,0,2.99-.72,3.64-2.72,7.64-23.74,15.38-47.44,23.09-71.15.19-.58.44-1.14.9-2.31,1.68,5.09,3.2,9.6,4.67,14.13,6.46,19.9,12.94,39.81,19.34,59.73.55,1.72,1.28,2.33,3.17,2.32,25.03-.08,50.06-.05,75.09-.05.62,0,1.24.06,2.65.14-2.51,1.84-4.45,3.28-6.4,4.7-18.75,13.62-37.49,27.27-56.29,40.83-1.67,1.2-1.96,2.2-1.32,4.15,7.84,23.84,15.57,47.72,23.33,71.59.17.52.3,1.05.64,2.23Z"/>
  </g>
</svg>