<?xml version="1.0" encoding="UTF-8"?>
<svg id="Layer_2" xmlns="http://www.w3.org/2000/svg" viewBox="0 0 211.69 211.6">
  <g id="Layer_1-2" data-name="Layer_1">
    <g>
      <path d="M81.22,59.96c-2.86-.41-5.67-.71-8.43-.93-6.22,12.98-10.41,27.08-12.2,41.96,19.04-.07,50.73,7.8,60.84,57.95,4.97,24.82,16.86,37.47,36.79,38.86,16.45-9.37,30.11-23.03,39.52-39.44-16.29-50.69-60.27-90.33-116.51-98.41Z"/>
      <path d="M50.9,110.64c-14.51,2.2-24.63,7.95-30.08,17.03-7.71,12.86-4.59,29.73-2.31,37.96,14.72,21.46,37.16,37.22,63.31,43.29-19.61-24.56-31.09-56.18-31.09-91.54,0-2.26.07-4.49.16-6.73Z"/>
      <path d="M67.56,49.86c4.01-7.51,8.63-14.64,13.86-21.32-12.48-4.35-16.31-13.5-16.69-20.27-25.54,10.8-46.01,31.32-56.66,56.97,16.24-10.12,34.84-15.46,55.33-15.46,1.37.01,2.77.05,4.16.07Z"/>
      <path d="M51.61,101.6c1.66-15.14,5.67-29.59,11.65-42.97-23.78.05-43.63,7.48-59.8,20.34-2.26,8.56-3.45,17.56-3.45,26.85,0,13.47,2.52,26.39,7.11,38.27.41-6.97,2.1-14.27,6.08-20.95,7.14-11.92,20.08-19.16,38.41-21.54Z"/>
      <path d="M87.67,21.14c7-7.82,14.86-14.88,23.39-21-1.74-.09-3.49-.14-5.22-.14-20.29,0-32.14,5.54-32.14,5.54-.21,1.25-1.48,12.07,13.97,15.6Z"/>
      <path d="M191.73,43.99l-.18.13c-19.82-24.78-51.83-11.88-52.16-11.76-8.7,3.61-24.58,3.1-48.47-1.52-5.11,6.12-9.69,12.71-13.66,19.71,1.73.18,3.48.38,5.25.63,40.37,5.79,76.04,26.98,100.48,59.6,8.5,11.36,15.29,23.63,20.27,36.49,5.44-12.72,8.44-26.75,8.44-41.44-.02-23.1-7.41-44.46-19.96-61.84Z"/>
      <path d="M135.99,24.18c7.39-3.07,20.02-5.69,33.1-3.2-12.85-9.63-27.98-16.35-44.41-19.31-9.84,6.01-18.85,13.22-26.84,21.46,23.34,4.07,33.63,2.93,38.16,1.05Z"/>
      <path d="M112.75,160.69c-8.8-43.69-34.83-51.23-52.93-50.88-.14,2.5-.21,5-.21,7.52,0,36.41,13.07,69.44,35.78,93.76,3.44.32,6.94.51,10.48.51,13.76,0,26.95-2.63,39.04-7.43-16.67-5.52-27.45-20.06-32.16-43.49Z"/>
    </g>
  </g>
</svg>