<?xml version="1.0" encoding="UTF-8"?>
<svg id="Layer_2" xmlns="http://www.w3.org/2000/svg" viewBox="0 0 196.29 200.45">
  <g id="Layer_1-2" data-name="Layer_1">
    <g>
      <path d="M196.29,102.31c0,26.22-10.21,50.86-28.74,69.4-18.54,18.54-43.18,28.74-69.4,28.74s-50.86-10.21-69.4-28.74C10.21,153.17,0,128.52,0,102.31c0-.14,0-.29,0-.43h32.38c0,.14,0,.29,0,.43,0,17.57,6.84,34.08,19.26,46.5,12.42,12.42,28.94,19.26,46.51,19.26s34.08-6.84,46.5-19.26c12.42-12.42,19.26-28.94,19.26-46.5,0-.14,0-.29,0-.43h32.38c0,.14,0,.29,0,.43Z"/>
      <circle cx="97.51" cy="46" r="46"/>
    </g>
  </g>
</svg>