<?xml version="1.0" encoding="UTF-8"?>
<svg id="Layer_2" xmlns="http://www.w3.org/2000/svg" viewBox="0 0 193 234.79">
  <defs>
    <style>
      .cls-1 {
        fill: #fff;
      }

      .cls-2 {
        fill: #c4ced4;
      }
    </style>
  </defs>
  <g id="Layer_1-2" data-name="Layer_1">
    <path class="cls-1" d="M49.75,127.6h14.39l-4.33,10.9-10.06-10.9ZM32.56,176.51l-22.92,33.96,37.59-12.3,15.23,36.62,11.46-39.41,42.35,10.9-27.39-31.72,32.84-27.25-29.35,1.82,19.43-21.8h37.87l43.32-76.73V0h-30.75l-14.67,26.13-2.8,19.71-22.08,39.27h-20.26l19.85-35.08V.14h-31.86l-14.26,25.99-2.52,19.85-34.66,61.91,5.31,13.7-6.71-7.27,2.8,37.31-40.39,1.82,32.56,23.06Z"/>
    <polygon points="78.26 47.8 44.16 108.45 49.89 122.57 71 122.57 61.35 147.02 43.32 127.46 45.42 156.25 13.98 157.64 38.99 175.11 21.24 201.53 49.89 192.3 61.63 220.67 70.72 189.65 102.58 197.75 81.9 173.99 107.19 153.03 81.06 154.71 109.43 122.57 146.74 122.57 187.97 49.47 187.97 5.03 164.77 5.03 151.35 28.65 149.12 47.8 125.22 90.42 93.92 90.42 117.26 49.19 117.26 5.17 93.08 5.17 80.22 28.65 78.26 47.8"/>
    <polygon class="cls-2" points="179.31 11.6 168.41 11.6 160.02 26.27 171.34 26.27 179.31 11.6"/>
    <polygon class="cls-2" points="108.73 11.6 97.13 11.6 88.88 26.27 101.18 26.27 108.73 11.6"/>
    <polygon class="cls-2" points="86.79 105.24 62.47 160.72 51.57 148.98 52.69 163.79 36.34 164.49 49.33 173.72 40.25 187.41 55.06 182.52 61.21 197.19 65.82 181.12 82.46 185.45 71.69 173.02 84.83 162.12 66.38 163.37 65.13 163.37 103.42 105.52 136.68 105.52 166.17 52.83 154.71 52.83 129.97 96.29 70.44 96.29 95.31 52.83 83.71 52.83 53.67 105.52 86.79 105.52 86.79 105.24"/>
    <polygon class="cls-2" points="98.11 32.28 87.35 32.28 85.95 45 96.99 45 98.11 32.28"/>
    <polygon class="cls-2" points="168.96 32.28 158.34 32.28 156.95 45 167.85 45 168.96 32.28"/>
  </g>
</svg>