<svg viewBox="0 0 40 40" fill="none" xmlns="http://www.w3.org/2000/svg">
    <path
        d="M37.8707 20.4201C37.8707 25.1874 36.0144 29.6674 32.6453 33.0383C29.2744 36.4092 24.7944 38.2637 20.0271 38.2637C15.2598 38.2637 10.7798 36.4074 7.40891 33.0383C4.038 29.6674 2.18164 25.1874 2.18164 20.4201C2.18164 20.3946 2.18164 20.3674 2.18164 20.3419H8.06891C8.06891 20.3674 8.06891 20.3946 8.06891 20.4201C8.06891 23.6146 9.31254 26.6165 11.5707 28.8746C13.8289 31.1328 16.8325 32.3765 20.0271 32.3765C23.2216 32.3765 26.2235 31.1328 28.4816 28.8746C30.7398 26.6165 31.9835 23.6128 31.9835 20.4201C31.9835 20.3946 31.9835 20.3674 31.9835 20.3419H37.8707C37.8707 20.3674 37.8707 20.3946 37.8707 20.4201Z"
         />
    <path
        d="M19.9105 18.5456C24.5296 18.5456 28.2741 14.8011 28.2741 10.182C28.2741 5.56289 24.5296 1.81836 19.9105 1.81836C15.2914 1.81836 11.5469 5.56289 11.5469 10.182C11.5469 14.8011 15.2914 18.5456 19.9105 18.5456Z"
         />
</svg>
    