<svg viewBox="0 0 40 40" fill="none" xmlns="http://www.w3.org/2000/svg">
    <path
        d="M25.3648 5.15455L19.9484 2L14.5102 5.11637L14.4902 11.3873L19.9066 14.5418L25.3448 11.4255L25.3648 5.15455Z" />
    <path
        d="M13.3677 19.3599L12.084 13.2254L6.12767 11.2672L1.45312 15.4436L2.73676 21.5799L8.69494 23.5363L13.3677 19.3599Z" />
    <path
        d="M9.69778 26.3906L5.99414 31.4524L8.52323 37.1888L14.7541 37.8633L18.4578 32.8015L15.9287 27.0652L9.69778 26.3906Z" />
    <path
        d="M24.0516 27.0107L21.4844 32.7288L25.1535 37.8143L31.3898 37.1816L33.9571 31.4634L30.288 26.3779L24.0516 27.0107Z" />
    <path
        d="M33.8042 11.2255L27.8351 13.1436L26.5078 19.2709L31.1533 23.48L37.1242 21.5618L38.4496 15.4346L33.8042 11.2255Z" />
</svg>
    