<?xml version="1.0" encoding="UTF-8"?>
<svg id="Layer_2" data-name="Layer 2" xmlns="http://www.w3.org/2000/svg" viewBox="0 0 588 196.25">
  <defs>
    <style>
      .cls-1, .cls-2 {
        stroke-width: 0px;
      }

      .cls-2 {
        fill: #fff;
      }
    </style>
  </defs>
  <g id="Layer_1-2" data-name="Layer 1">
    <rect class="cls-1" x="28.74" y="28.74" width="138.77" height="138.77" transform="translate(-40.65 98.13) rotate(-45)"/>
    <rect class="cls-1" x="224.69" y="28.74" width="138.77" height="138.77" transform="translate(16.75 236.68) rotate(-45)"/>
    <rect class="cls-1" x="420.49" y="28.74" width="138.77" height="138.77" transform="translate(74.1 375.13) rotate(-45)"/>
    <path class="cls-2" d="M87.93,94.93c-.33-.33-.86-.85-1.51-1.5-2.89-2.91-3.2-3.24-4.26-4.26-2.33-2.24-5.1-2.98-8.18-2.05-3.11.95-5.03,3.12-5.65,6.32-.88,4.52,2.13,8.81,6.71,9.54,2.71.43,5.12-.31,7.08-2.26,5.69-5.66,11.37-11.33,17.04-17.01,2.35-2.36,5.1-3.97,8.37-4.65,8.75-1.81,17.03,3.59,19.1,11.92,2.19,8.79-3.1,17.6-11.9,19.68-5.74,1.36-10.86-.08-15.17-4.14-.86-.81-1.66-1.71-5.38-5.36-.23-.23-.42-.42-.55-.54.97-.97,1.94-1.94,2.91-2.91.95-.95,1.9-1.91,2.85-2.86.14.17.35.44.62.76,2.45,2.95,4.62,4.62,5.06,5.06,1.82,1.81,4.04,2.6,6.58,2.41,3.49-.26,6.53-2.96,7.24-6.39.92-4.44-1.71-8.67-6.11-9.7-2.86-.67-5.45.02-7.56,2.08-3.61,3.53-7.16,7.13-10.73,10.7-2.29,2.29-4.56,4.59-6.88,6.85-2.54,2.47-5.6,3.96-9.12,4.37-5.45.65-10.13-1-13.94-4.95-2.39-2.48-3.78-5.48-4.26-8.89-1.05-7.53,3.3-14.92,10.49-17.41,3.1-1.07,6.05-1.32,8.82-.76,3.4.69,5.63,2.48,8.26,4.54,2.71,2.12,4.59,4.26,5.77,5.75-.64.64-2.37,2.37-3.01,3.01-.52.52-2.16,2.15-2.68,2.67Z"/>
    <path class="cls-2" d="M262.79,79.68c0-.25,0-.5,0-.75h10.3c0,.25-.01.5-.01.75,0,5.59,2.18,10.84,6.13,14.79,3.95,3.95,9.2,6.13,14.79,6.13,5.59,0,10.84-2.17,14.79-6.13,3.95-3.95,6.13-9.2,6.13-14.79,0-.25,0-.5-.01-.75h10.3c0,.25,0,.5,0,.75,0,8.34-3.25,16.17-9.14,22.07-5.89,5.9-13.73,9.14-22.07,9.14-8.34,0-16.17-3.25-22.07-9.14-5.9-5.89-9.14-13.73-9.14-22.07Z"/>
    <polygon class="cls-2" points="509.7 81.47 505.22 76.99 496.26 76.99 489.54 83.72 482.82 76.99 473.86 76.99 469.38 81.47 469.38 92.67 489.54 112.83 489.54 112.83 489.54 112.83 489.55 112.83 489.55 112.83 509.7 92.67 509.7 81.47"/>
  </g>
</svg>