<svg viewBox="0 0 40 40" fill="none" xmlns="http://www.w3.org/2000/svg">
    <path
        d="M17.932 20.0089C17.932 24.7762 16.0756 29.2562 12.7047 32.6271C9.53016 35.8035 5.36834 37.6344 0.910156 37.8344V31.938C3.79379 31.7435 6.47926 30.5271 8.54108 28.4635C10.7993 26.2053 12.0429 23.2016 12.0429 20.0071C12.0429 16.8126 10.7993 13.8107 8.54108 11.5526C6.47745 9.48892 3.79379 8.27256 0.910156 8.07801V2.18164C5.36652 2.38164 9.52834 4.21437 12.7047 7.38892C16.0756 10.7598 17.932 15.2398 17.932 20.0071V20.0089Z"
         />
    <path
        d="M22.1602 20.0089C22.1602 24.7762 24.0165 29.2562 27.3874 32.6271C30.562 35.8035 34.7238 37.6344 39.182 37.8344V31.938C36.2983 31.7435 33.6129 30.5271 31.5511 28.4635C29.2929 26.2053 28.0493 23.2016 28.0493 20.0071C28.0493 16.8126 29.2929 13.8107 31.5511 11.5526C33.6147 9.48892 36.2983 8.27256 39.182 8.07801V2.18164C34.7256 2.38164 30.5638 4.21437 27.3874 7.38892C24.0165 10.7598 22.1602 15.2398 22.1602 20.0071V20.0089Z"
         />
</svg>
    