<svg viewBox="0 0 40 40" fill="none" xmlns="http://www.w3.org/2000/svg">
    <g clip-path="url(#clip0_280_7089)">
        <path
            d="M19.9553 0.363281C15.1462 0.363281 11.248 4.26147 11.248 9.07056H28.6626C28.6626 4.26147 24.7644 0.363281 19.9553 0.363281Z"
             />
        <path
            d="M19.9553 39.5471C24.7644 39.5471 28.6626 35.6489 28.6626 30.8398H11.248C11.248 35.6489 15.1462 39.5471 19.9553 39.5471Z"
             />
        <path
            d="M39.5491 19.9543C39.5491 15.1453 35.6509 11.2471 30.8418 11.2471V28.6616C35.6509 28.6616 39.5491 24.7634 39.5491 19.9543Z"
             />
        <path
            d="M0.365234 19.9541C0.365234 24.7632 4.26342 28.6614 9.07251 28.6614V11.2468C4.26342 11.2468 0.365234 15.145 0.365234 19.9541Z"
             />
        <path
            d="M19.9454 25.4451C22.982 25.4451 25.4436 22.9835 25.4436 19.9469C25.4436 16.9103 22.982 14.4487 19.9454 14.4487C16.9089 14.4487 14.4473 16.9103 14.4473 19.9469C14.4473 22.9835 16.9089 25.4451 19.9454 25.4451Z"
             />
    </g>
    <defs>
        <clipPath id="clip0_280_7089">
            <rect width="40" height="40" fill="white" />
        </clipPath>
    </defs>
</svg>
    