<svg viewBox="0 0 40 40" fill="none" xmlns="http://www.w3.org/2000/svg">
    <path
        d="M9.12182 24.6946C8.35818 23.0928 7.95455 21.3273 7.95455 19.5C7.95455 16.271 9.21273 13.2328 11.4964 10.9491C13.78 8.66549 16.8164 7.40732 20.0473 7.40732C23.2782 7.40732 26.3145 8.66549 28.5982 10.9491C30.8818 13.2328 32.14 16.2691 32.14 19.5C32.14 21.3419 31.7291 23.12 30.9546 24.731L35.3164 29.1273C37.1236 26.2728 38.0909 22.9619 38.0909 19.5C38.0909 14.68 36.2146 10.1491 32.8055 6.74003C29.3964 3.33094 24.8655 1.45459 20.0455 1.45459C15.2255 1.45459 10.6945 3.33094 7.28546 6.74003C3.87637 10.1491 2 14.68 2 19.5C2 22.94 2.95636 26.231 4.74182 29.0728L9.12 24.6946H9.12182Z"
         />
    <path d="M20.0479 22.1035L36.4879 38.669H3.48242L20.0479 22.1035Z"  />
</svg>
    