
<svg viewBox="7.297 12.8317 481.4593 99.0404" xmlns="http://www.w3.org/2000/svg">
  <defs>
    <clipPath id="clipPath20" clipPathUnits="userSpaceOnUse">
      <path id="path18" d="M 0,1200 H 1600 V 0 H 0 Z"/>
    </clipPath>
  </defs>
  <g clip-path="url(#clipPath20)" id="g16" transform="matrix(0.3689730167388916, 0, 0, -0.3689730167388916, -45.05129623413086, 299.39849853515625)">
    <g transform="translate(995.7721,552.1909)" id="g22">
      <path id="path24" style="fill:#000000;fill-opacity:1;fill-rule:nonzero;stroke:none" d="m 0,0 c -5.533,5.467 -8.695,9.617 -14.228,15.084 -47.219,0 -235.323,-21.684 -313.29,-46.402 3.344,-4.239 4.628,-7.953 8.78,-12.634 48.841,11.707 117.187,23.46 169.104,29.882 C -96.182,-7.459 -46.972,-2.622 0,0"/>
    </g>
    <g transform="translate(474.9706,639.6574)" id="g26">
      <path id="path28" style="fill:#000000;fill-opacity:1;fill-rule:nonzero;stroke:none" d="M 0,0 C 12.442,13.719 31.039,22.964 48.879,22.714 70.82,22.405 76.593,8.313 76.593,8.313 76.593,8.313 27.356,3.39 0,0 m 93.76,10.407 c 0,0 -11.055,29.656 -51.139,25.448 -34.096,-3.579 -58.63,-23.961 -51.976,-38.966 2.023,-4.561 9.206,-10.308 26.023,-10.953 18.049,-0.691 55.503,4.854 55.503,4.854 L 6.13,-110.127 19.297,-122.535 c 0,0 51.32,79.262 72.02,116.179 12.602,1.894 38.025,5.305 38.025,5.305 l 12.637,17.174 z"/>
    </g>
    <g transform="translate(642.4169,641.8586)" id="g30">
      <path id="path32" style="fill:#000000;fill-opacity:1;fill-rule:nonzero;stroke:none" d="M 0,0 -19.588,-2.201 -7.32,15.281 12.564,17.488 Z"/>
    </g>
    <g transform="translate(834.2725,600.9407)" id="g34">
      <path id="path36" style="fill:#000000;fill-opacity:1;fill-rule:nonzero;stroke:none" d="m 0,0 c -3.075,9.338 5.08,27.014 16.969,36.23 1.393,-3.755 6.782,-8.386 11.55,-9.828 C 23.609,17.554 11.709,5.137 0,0 M 580.547,111.586 288.255,75.695 c 0,0 -6.549,3.878 -14.884,5.207 -23.43,3.735 -25.458,-10.446 -18.867,-14.002 9.312,-5.023 22.564,-4.759 22.564,-4.759 0,0 -2.608,-8.868 -10.357,-17.488 -7.269,-8.086 -15.45,-15.111 -20.883,-15.111 -7.895,0 -2.511,12.682 -1.415,14.581 3.886,6.729 9.338,13.038 9.338,13.038 l -8.829,8.715 -53.278,-26.373 c 0,0 1.766,18.052 -6.183,30.063 0,0 -22.429,-14.554 -38.655,-24.29 -10.505,-6.304 -34.541,-17.432 -34.541,-17.432 0,0 1.185,4.346 1.018,11.668 -0.176,7.782 -2.588,16.568 -5.849,21.565 C 86.672,49.599 65.718,41.356 42.681,34.482 42.648,40.043 37.436,45.219 32.24,47.2 27.044,49.181 20.062,48.348 14.85,46.41 9.638,44.471 4.98,41.319 0.379,38.197 -20.965,23.714 -56.359,-5.886 -63.999,-5.886 c -7.321,0 -1.305,22.375 0.99,30.561 9.277,14.104 20.554,25.013 29.045,36.522 60.431,9.659 112.297,17.687 171.987,35.103 11.445,3.339 40.23,14.568 44.872,34.094 4.396,18.493 -25.775,37.731 -96.466,42.672 -108.211,7.564 -202.355,-2.174 -320.24,-14.941 -180.552,-19.553 -406.802,-86.25 -406.802,-86.25 l -6.004,-25.466 c 0,0 170.686,61.661 411.617,93.493 157.126,20.759 288.234,23.492 358.562,12.297 16.299,-2.594 41.612,-8.165 40.139,-18.197 -1.076,-7.332 -16.32,-19.15 -40.117,-25.793 C 73.566,94.247 34.73,86.929 -22.544,78.1 c 6.383,7.697 29.316,39.73 29.316,49.238 -10.866,-1.019 -34.466,-25.807 -52.541,-52.437 -44.925,-5.16 -118.751,-15.25 -118.751,-15.25 0,0 -6.655,-10.198 -10.659,-16.031 40.409,4.806 119.465,15.188 119.465,15.188 0,0 -9.267,-12.696 -15.617,-20.192 -18.987,-18.529 -65.245,-57.895 -79.831,-57.895 -9.507,0 -6.722,11.432 -5.32,15.269 7.129,19.517 26.597,25.629 26.597,25.629 l -0.113,-11.998 c 0,0 4.662,2.713 6.294,3.958 2.988,2.279 5.373,5.558 5.875,9.283 0.77,5.724 -4.176,9.962 -9.952,9.962 -18.403,0 -39.965,-22.92 -39.965,-22.92 -28.91,-20.303 -60.104,-44.879 -67.235,-39.786 -8.641,6.429 37.013,58.632 37.013,58.632 l -19.695,-2.264 c 0,0 -24.264,-28.442 -33.233,-45.539 -2.187,-4.17 -4.246,-8.516 -4.847,-13.186 -0.6,-4.67 0.462,-9.772 3.796,-13.097 3.236,-3.229 8.148,-4.322 12.695,-3.851 4.547,0.471 10.042,2.131 14.062,4.307 22.766,12.324 53.652,38.994 53.652,38.994 0,0 -4.511,-11.841 0.609,-19.999 2.779,-4.427 8.295,-8.072 17.218,-8.072 12.311,0 30.836,12.184 46.521,23.317 14.743,10.465 27.122,25.326 27.122,25.326 0,0 -9.929,-37.384 16.081,-34.219 15.41,1.875 51.63,34.814 51.63,34.814 0,0 -1.471,-5.32 -2.15,-12.565 -0.966,-10.303 6.671,-15.543 13.721,-15.419 14.369,0.252 32.359,18.942 41.77,36.143 13.696,3.622 37.782,9.991 59.698,22.968 C 101.757,34.07 94.607,21.959 94.607,21.959 L 65.008,8.951 c 0,0 5.037,-10.413 14.099,-11.977 6.062,-1.046 15.161,3.086 20.047,6.824 4.886,3.739 10.423,12.171 10.423,12.171 0,0 27.589,11.772 67.577,36.906 1.458,-9.524 -1.39,-20.956 -1.39,-20.956 L 148.372,17.997 c 0,0 4.641,-14.149 19.695,-12.111 18.614,2.519 22.564,21.335 22.564,21.335 l 40.482,20.375 c 0,0 -4.534,-7.497 -4.754,-16.243 -0.194,-7.748 5.797,-16.865 15.847,-16.865 8.15,0 25.56,4.45 41.944,30.82 7.85,12.635 8.878,18.021 8.878,18.021 l 281.067,30.939 z"/>
    </g>
    <g transform="translate(148.8367,659.7991)" id="g38">
      <path id="path40" style="fill:#000000;fill-opacity:1;fill-rule:nonzero;stroke:none" d="m 0,0 -6.961,-26.599 25.977,8.659 6.112,25.637 z"/>
    </g>
    <g transform="translate(1427.2139,713.6583)" id="g42">
      <path id="path44" style="fill:#000000;fill-opacity:1;fill-rule:nonzero;stroke:none" d="m 0,0 -6.093,-17.635 19.751,2.094 5.867,17.409 z"/>
    </g>
  </g>
</svg>