<svg viewBox="0 0 40 40" fill="none" xmlns="http://www.w3.org/2000/svg">
    <path
        d="M37.8745 19.3C37.8745 19.4437 37.8745 19.5873 37.8691 19.731H31.9781C31.9836 19.5873 31.9854 19.4455 31.9854 19.3C31.9854 16.1055 30.7418 13.1037 28.4836 10.8455C26.2254 8.58732 23.2218 7.34368 20.0291 7.34368C16.8345 7.34368 13.8327 8.58732 11.5727 10.8455C9.31451 13.1037 8.07087 16.1073 8.07087 19.3C8.07087 19.4437 8.07269 19.5873 8.07815 19.731H2.18905C2.18542 19.5873 2.18359 19.4437 2.18359 19.3C2.18359 14.5328 4.03996 10.0528 7.41087 6.68186C10.7818 3.31095 15.2618 1.45459 20.0291 1.45459C24.7963 1.45459 29.2763 3.31095 32.6472 6.68186C36.0182 10.0528 37.8745 14.5328 37.8745 19.3Z"
         />
    <path
        d="M24.3222 25.6566V17.0293H15.7132V25.6566L2.76953 38.5984H11.3986L20.0295 29.9711L28.655 38.5984H37.2023L24.3222 25.6566Z"
         />
</svg>
    