<svg viewBox="0 0 40 40" fill="none" xmlns="http://www.w3.org/2000/svg">
    <g clip-path="url(#clip0_280_7098)">
        <path
            d="M14.5206 30.7345L3.73876 19.9527L14.5206 9.17088V0.54541L-2.72852 17.7927C-2.72852 19.48 -2.72852 20.4254 -2.72852 22.1109L14.5206 39.36V30.7345Z"
             />
        <path
            d="M25.2207 30.7345L36.0025 19.9527L25.2207 9.17088V0.54541L42.608 17.7854C42.608 19.4818 42.608 20.4254 42.608 22.1218L25.2207 39.3618V30.7363V30.7345Z"
             />
        <path
            d="M19.8849 25.3743C22.9215 25.3743 25.3831 22.9127 25.3831 19.8761C25.3831 16.8395 22.9215 14.3779 19.8849 14.3779C16.8483 14.3779 14.3867 16.8395 14.3867 19.8761C14.3867 22.9127 16.8483 25.3743 19.8849 25.3743Z"
             />
    </g>
    <defs>
        <clipPath id="clip0_280_7098">
            <rect width="40" height="40" fill="white" />
        </clipPath>
    </defs>
</svg>
    