<svg viewBox="0 0 14 26" xmlns="http://www.w3.org/2000/svg">
    <path
        d="M13.2738 7.136V19.7C13.2738 22.292 11.7258 24.488 9.49384 25.46L7.87384 22.256C8.91784 21.896 9.67384 20.888 9.67384 19.7V7.136C9.67384 6.704 9.56584 6.308 9.38584 5.948L6.86584 0.872H7.00984C10.4658 0.872 13.2738 3.68 13.2738 7.136ZM4.59784 20.924L7.11784 26H6.97384C3.55384 26 0.709844 23.156 0.709844 19.7V7.136C0.709844 4.544 2.25784 2.348 4.48984 1.376L6.10984 4.616C5.06584 4.976 4.30984 5.948 4.30984 7.136V19.7C4.30984 20.132 4.41784 20.564 4.59784 20.924Z"
        fill="black" />
</svg>
    