<svg viewBox="0 0 14 26" xmlns="http://www.w3.org/2000/svg">
    <path
        d="M4.50306 1.376L6.12306 4.616C5.07906 4.976 4.32306 5.948 4.32306 7.136H0.723063C0.723063 4.544 2.27106 2.348 4.50306 1.376ZM13.2871 7.136C13.2871 8.36 12.9631 9.476 12.3511 10.448L4.93506 22.4L6.73506 26H0.723063V22.4L9.29106 8.576C9.54306 8.18 9.68706 7.64 9.68706 7.136C9.68706 6.704 9.57906 6.308 9.39906 5.948L6.87906 0.872H7.02306C10.4791 0.872 13.2871 3.68 13.2871 7.136ZM13.2871 22.4V26H9.36306L7.59906 22.4H13.2871Z"
        fill="black" />
</svg>
    