<svg viewBox="0 0 13 26" xmlns="http://www.w3.org/2000/svg">
    <path
        d="M3.97319 1.376L5.59319 4.616C4.54919 4.976 3.79319 5.948 3.79319 7.136H0.193188C0.193188 4.544 1.74119 2.348 3.97319 1.376ZM12.7572 16.136V19.7C12.7572 22.292 11.2092 24.488 8.97719 25.46L7.35719 22.256C8.40119 21.896 9.15719 20.888 9.15719 19.7V16.136C9.15719 14.66 7.96919 13.436 6.49319 13.436H5.59319L3.79319 9.836H6.49319C7.96919 9.836 9.15719 8.612 9.15719 7.136C9.15719 6.704 9.04919 6.308 8.86919 5.948L6.34919 0.872H6.49319C9.94919 0.872 12.7572 3.68 12.7572 7.136C12.7572 9.044 11.9292 10.592 10.5972 11.636C11.9292 12.68 12.7572 14.228 12.7572 16.136ZM4.08119 20.924L6.60119 26H6.45719C3.03719 26 0.193188 23.156 0.193188 19.7H3.79319C3.79319 20.132 3.90119 20.564 4.08119 20.924Z"
        fill="black" />
</svg>
    