<svg viewBox="0 0 14 26" xmlns="http://www.w3.org/2000/svg">
    <path
        d="M13.2855 0.872V4.472H8.74952L6.94952 0.872H13.2855ZM4.78952 10.916L6.12152 13.58C5.07752 13.94 4.32152 14.948 4.32152 16.136H0.721516V0.872H4.32152L6.12152 4.472H4.32152V11.348C4.42952 11.24 4.64552 11.024 4.78952 10.916ZM13.2855 16.136V19.7C13.2855 22.292 11.7375 24.488 9.50552 25.46L7.88552 22.256C8.92952 21.896 9.68552 20.888 9.68552 19.7V16.136C9.68552 15.704 9.57752 15.272 9.39752 14.912L6.91352 9.944C7.23752 9.872 7.56152 9.836 7.88552 9.836C11.1255 9.836 13.2855 12.68 13.2855 16.136ZM4.60952 20.924L7.12952 26H6.98552C3.56552 26 0.721516 23.156 0.721516 19.7H4.32152C4.32152 20.132 4.42952 20.564 4.60952 20.924Z"
        fill="black" />
</svg>
    