<svg viewBox="0 0 14 26" xmlns="http://www.w3.org/2000/svg">
    <path
        d="M13.4145 7.136H9.81447C9.81447 6.704 9.70647 6.308 9.52647 5.948L7.00647 0.872H7.15047C10.6065 0.872 13.4145 3.68 13.4145 7.136ZM13.4145 16.136V19.7C13.4145 22.292 11.8665 24.488 9.63447 25.46L8.01447 22.256C9.05847 21.896 9.81447 20.888 9.81447 19.7V16.136C9.81447 15.704 9.70647 15.272 9.52647 14.912L7.04247 9.944C7.36647 9.872 7.69047 9.836 8.01447 9.836C11.2545 9.836 13.4145 12.68 13.4145 16.136ZM4.73847 20.924L7.25847 26H7.11447C3.69447 26 0.850469 23.156 0.850469 19.7V7.136C0.850469 4.544 2.39847 2.348 4.63047 1.376L6.25047 4.616C5.20647 4.976 4.45047 5.948 4.45047 7.136V11.348C4.55847 11.24 4.77447 11.024 4.91847 10.916L6.25047 13.58C5.20647 13.94 4.45047 14.948 4.45047 16.136V19.7C4.45047 20.132 4.55847 20.564 4.73847 20.924Z"
        fill="black" />
</svg>
    