<svg viewBox="0 0 14 26" xmlns="http://www.w3.org/2000/svg">
    <path
        d="M13.1625 7.136V19.7C13.1625 22.292 11.6145 24.488 9.38247 25.46L7.76247 22.256C8.80647 21.896 9.56247 20.888 9.56247 19.7V15.524C9.45447 15.632 9.23847 15.848 9.09447 15.956L7.76247 13.292C8.80647 12.932 9.56247 11.924 9.56247 10.736V7.136C9.56247 6.704 9.45447 6.308 9.27447 5.948L6.75447 0.872H6.89847C10.3545 0.872 13.1625 3.68 13.1625 7.136ZM4.48647 11.96L6.97047 16.928C6.64647 17 6.32247 17.036 5.99847 17.036C2.75847 17.036 0.598469 14.192 0.598469 10.736V7.136C0.598469 4.544 2.14647 2.348 4.37847 1.376L5.99847 4.616C4.95447 4.976 4.19847 5.948 4.19847 7.136V10.736C4.19847 11.168 4.30647 11.6 4.48647 11.96ZM4.48647 20.924L7.00647 26H6.86247C3.44247 26 0.598469 23.156 0.598469 19.7H4.19847C4.19847 20.132 4.30647 20.564 4.48647 20.924Z"
        fill="black" />
</svg>
    