<svg width="20" height="20" viewBox="0 0 20 20" fill="none" xmlns="http://www.w3.org/2000/svg">
    <path
        d="M18.1724 0.365455C18.1297 0.153636 17.9433 0 17.7269 0H2.27238C2.05601 0 1.86965 0.152727 1.82692 0.365455L0.917832 4.91091C0.891469 5.04455 0.926014 5.18273 1.01238 5.28818C1.09874 5.39364 1.22783 5.45455 1.3642 5.45455H2.27329C2.48147 5.45455 2.66329 5.31273 2.7142 5.11091C2.72238 5.07727 3.57329 1.81818 5.90965 1.81818H8.18238V15.9091C8.18238 18.1464 5.12965 18.1818 4.99965 18.1818C4.74965 18.1818 4.54601 18.3864 4.54601 18.6364V19.5455C4.54601 19.7964 4.74965 20 5.00056 20H15.0006C15.2515 20 15.4551 19.7964 15.4551 19.5455V18.6364C15.4551 18.3864 15.2515 18.1827 15.0015 18.1818C14.8715 18.1818 11.8187 18.1464 11.8187 15.9091V1.81818H14.0915C16.4278 1.81818 17.2787 5.07727 17.2869 5.11091C17.3378 5.31273 17.5196 5.45455 17.7278 5.45455H18.6369C18.7733 5.45455 18.9024 5.39364 18.9887 5.28818C19.0751 5.18273 19.1097 5.04455 19.0833 4.91091L18.1742 0.365455H18.1724Z"
        fill="white" />
</svg>
    