<svg width="154" height="32" viewBox="0 0 154 32" fill="none" xmlns="http://www.w3.org/2000/svg">
    <g clip-path="url(#clip0_534_629)">
        <path
            d="M38.2935 11.8809L36.2071 16.3897H30.7883L23.7206 31.8345H17.7216L26.9326 11.8809H38.2935Z"
            fill="white" />
        <path d="M40.7284 11.8809L38.6294 16.3897H43.6329L45.7097 11.8809H40.7284Z" fill="white" />
        <path
            d="M59.8835 5.81812C59.541 4.41347 58.8308 2.4032 55.5934 1.1888C53.4151 0.370744 50.9166 0.00927734 44.6511 0.00927734H10.3403L8.03516 4.84786H46.7851C49.3502 4.84786 51.538 4.87323 52.6859 5.3425C54.8547 6.22714 54.75 7.92984 54.5661 8.6718C54.2205 10.0479 52.4798 11.8806 50.3141 11.8806H48.2722L46.1351 16.3894H49.8702C52.448 16.3894 54.0112 15.8758 55.511 14.9848C58.5676 13.1679 60.7174 9.27425 59.8771 5.81812H59.8835Z"
            fill="white" />
        <path d="M148.848 18.001L147.025 21.9708H151.502L153.29 18.001H148.848Z" fill="white" />
        <path d="M2.30515 0L0 4.81322L5.25395 4.85127L7.48617 0.0348784L2.30515 0Z" fill="white" />
        <path
            d="M146.239 17.9815H127.16C124.944 17.9815 123.301 18.8091 121.145 20.2137C118.567 21.8942 116.215 23.3496 116.215 23.3496C116.215 23.3496 115.831 22.373 113.992 20.5435C112.961 19.5162 109.664 17.0303 109.664 17.0303L100.944 24.0345C100.944 24.0345 100.859 22.6837 99.3144 20.905C98.1222 19.532 95.6998 17.7564 94.7549 17.1286C94.4251 17.2808 86.3016 20.9747 86.3016 20.9747C86.3016 20.9747 84.4404 17.9847 80.8606 17.9847C77.2808 17.9847 75.353 19.6874 74.1164 21.4884C72.8671 23.302 73.0383 25.3028 73.0383 25.3028C73.0383 25.3028 71.2088 26.5838 69.6266 26.5838C68.7736 26.5838 68.1649 25.864 68.1205 25.2521C68.0539 24.3484 68.6468 23.2038 68.7863 22.9025C70.0483 20.1503 71.9761 16.3739 71.9761 16.3739H82.2906L79.0913 12.03H73.5551L71.6907 6.42725L69.0685 12.03H60.7548L58.7382 16.3739H67.0805L63.7797 22.5601C63.7797 22.5601 58.383 27.3416 54.1818 27.3416C51.8037 27.3416 51.2996 25.5089 51.29 24.973C51.2837 24.4943 51.401 24.006 51.6198 23.6001C52.124 22.6742 53.2749 21.9925 54.3276 21.9925C56.4362 21.9925 57.0069 23.5969 57.0069 23.5969C57.0069 23.5969 59.2296 21.8308 60.127 20.905C58.6938 19.0247 56.1064 17.4932 52.5457 18.2479C47.0698 19.4083 46.3532 24.2564 46.3532 24.2564C46.3532 24.2564 42.228 27.2718 40.3985 27.2718C39.2253 27.2718 39.2316 25.9179 39.4314 25.2901C40.0846 23.2196 42.4595 18.9232 42.4595 18.9232L37.4275 18.8915C37.4275 18.8915 34.5738 24.4879 34.1489 26.9135C33.5243 30.4775 36.2004 31.8346 38.4136 31.8346C42.3643 31.8346 46.8954 28.2389 46.8954 28.2389C46.8954 28.2389 48.151 31.9994 53.5793 31.9994C58.5257 31.9994 62.8982 28.0233 62.8982 28.0233C62.8982 28.0233 63.3358 31.787 67.0012 31.787C70.359 31.787 73.9864 29.1426 73.9864 29.1426C73.9864 29.1426 75.9142 31.9804 79.4433 31.9804C82.484 31.9804 84.2153 30.766 85.4265 29.4882C87.4716 27.3321 87.4907 24.6718 87.4907 24.6718L93.9749 21.555C93.9749 21.555 95.4239 22.4301 96.0929 23.5145C96.8539 24.7479 96.5686 27.2655 93.9368 27.2655C92.4656 27.2655 91.5905 25.9496 91.5905 25.9496L88.0994 28.8953C88.0994 28.8953 89.967 31.8663 93.458 31.8663C97.3137 31.8663 98.7247 30.4268 100.503 29.2028C103.259 27.3067 109.315 21.9989 109.315 21.9989C109.315 21.9989 110.885 23.1974 111.43 23.8284C111.89 24.3611 112.08 24.9667 112.061 25.5089C112.045 25.9179 111.516 27.4621 109.512 27.4621C108.174 27.4621 107.137 26.2889 107.137 26.2889C107.137 26.2889 104.521 28.407 103.392 29.4248C104.828 31.1307 107.149 31.8758 109.325 31.8758C115.416 31.8758 116.912 27.4621 116.912 27.4621L119.557 25.753C120.039 29.1045 122.274 31.8155 126.456 31.8155C130.382 31.8155 133.714 28.686 133.714 24.8779C133.714 23.9108 133.54 22.8106 133.169 21.9735C135.455 21.9386 144.33 21.9735 144.33 21.9735L146.242 17.9847L146.239 17.9815ZM82.8455 25.2647C82.4365 26.6789 80.9652 27.4938 79.5637 27.0879C78.1623 26.6821 77.3601 25.2045 77.7691 23.7903C78.1781 22.3762 79.6494 21.5613 81.0508 21.9672C82.4523 22.373 83.2545 23.8506 82.8455 25.2647ZM129.193 25.4328C128.78 26.847 127.312 27.665 125.911 27.256C124.509 26.8501 123.704 25.3726 124.116 23.9584C124.528 22.5442 125.996 21.7262 127.398 22.1352C128.799 22.5411 129.605 24.0186 129.193 25.4328Z"
            fill="white" />
    </g>
    <defs>
        <clipPath id="clip0_534_629">
            <rect width="153.6" height="32" fill="white" />
        </clipPath>
    </defs>
</svg>