<svg width="174" height="37" viewBox="0 0 174 37" fill="none" xmlns="http://www.w3.org/2000/svg">
    <g clip-path="url(#clip0_348_2297)">
        <path
            d="M43.7896 13.8555L41.4443 18.924H35.3528L27.4078 36.286H20.6641L31.0185 13.8555H43.7896Z"
            fill="black" />
        <path d="M46.5276 13.8555L44.168 18.924H49.7925L52.1272 13.8555H46.5276Z" fill="black" />
        <path
            d="M68.0598 7.04064C67.6748 5.46163 66.8764 3.20183 63.2372 1.83668C60.7885 0.917079 57.9798 0.510742 50.9366 0.510742H12.3667L9.77539 5.94995H53.3354C56.219 5.94995 58.6784 5.97846 59.9687 6.50599C62.4067 7.50044 62.2891 9.4145 62.0823 10.2486C61.6938 11.7955 59.737 13.8557 57.3025 13.8557H55.0071L52.6047 18.9242H56.8035C59.7013 18.9242 61.4586 18.3468 63.1445 17.3452C66.5806 15.3028 68.9972 10.9258 68.0526 7.04064H68.0598Z"
            fill="black" />
        <path d="M168.067 20.7354L166.018 25.1979H171.05L173.061 20.7354H168.067Z" fill="black" />
        <path d="M3.33347 0.5L0.742188 5.91069L6.64833 5.95347L9.15763 0.539208L3.33347 0.5Z"
            fill="black" />
        <path
            d="M165.134 20.7136H143.688C141.196 20.7136 139.35 21.6439 136.926 23.2229C134.028 25.112 131.384 26.7481 131.384 26.7481C131.384 26.7481 130.952 25.6502 128.885 23.5936C127.727 22.4388 124.02 19.6443 124.02 19.6443L114.218 27.518C114.218 27.518 114.121 25.9995 112.386 23.9999C111.045 22.4566 108.322 20.4605 107.26 19.7548C106.889 19.9259 97.7575 24.0784 97.7575 24.0784C97.7575 24.0784 95.6652 20.7172 91.641 20.7172C87.6169 20.7172 85.4497 22.6312 84.0596 24.6558C82.6553 26.6946 82.8478 28.9437 82.8478 28.9437C82.8478 28.9437 80.7911 30.3837 79.0125 30.3837C78.0537 30.3837 77.3693 29.5746 77.3194 28.8867C77.2446 27.8708 77.9111 26.5841 78.0679 26.2455C79.4866 23.1516 81.6537 18.9065 81.6537 18.9065H93.2485L89.6521 14.0233H83.4287L81.3329 7.7251L78.3852 14.0233H69.0394L66.7725 18.9065H76.1503L72.4398 25.8605C72.4398 25.8605 66.3733 31.2356 61.6505 31.2356C58.9773 31.2356 58.4105 29.1754 58.3998 28.573C58.3927 28.0348 58.5246 27.4859 58.7705 27.0296C59.3373 25.9889 60.6311 25.2225 61.8145 25.2225C64.1848 25.2225 64.8264 27.0261 64.8264 27.0261C64.8264 27.0261 67.325 25.0407 68.3337 23.9999C66.7226 21.8863 63.8141 20.1647 59.8113 21.013C53.6557 22.3176 52.8501 27.7675 52.8501 27.7675C52.8501 27.7675 48.2129 31.1572 46.1563 31.1572C44.8375 31.1572 44.8446 29.6352 45.0691 28.9295C45.8034 26.6019 48.4731 21.7722 48.4731 21.7722L42.8165 21.7366C42.8165 21.7366 39.6085 28.0277 39.1309 30.7544C38.4287 34.7607 41.4371 36.2863 43.925 36.2863C48.3662 36.2863 53.4596 32.2443 53.4596 32.2443C53.4596 32.2443 54.8711 36.4716 60.9733 36.4716C66.5337 36.4716 71.4489 32.0019 71.4489 32.0019C71.4489 32.0019 71.9408 36.2328 76.0612 36.2328C79.8359 36.2328 83.9135 33.2601 83.9135 33.2601C83.9135 33.2601 86.0806 36.4502 90.0477 36.4502C93.466 36.4502 95.4121 35.0851 96.7737 33.6487C99.0727 31.2249 99.0941 28.2344 99.0941 28.2344L106.383 24.7306C106.383 24.7306 108.012 25.7144 108.764 26.9334C109.62 28.3199 109.299 31.15 106.34 31.15C104.687 31.15 103.703 29.6708 103.703 29.6708L99.7784 32.9821C99.7784 32.9821 101.878 36.3219 105.802 36.3219C110.136 36.3219 111.723 34.7037 113.722 33.3279C116.82 31.1964 123.628 25.2296 123.628 25.2296C123.628 25.2296 125.392 26.577 126.005 27.2863C126.522 27.8851 126.736 28.5659 126.714 29.1754C126.696 29.6352 126.101 31.371 123.849 31.371C122.344 31.371 121.179 30.0522 121.179 30.0522C121.179 30.0522 118.238 32.4332 116.969 33.5774C118.584 35.495 121.193 36.3326 123.638 36.3326C130.485 36.3326 132.168 31.371 132.168 31.371L135.14 29.4498C135.682 33.2174 138.195 36.2649 142.896 36.2649C147.309 36.2649 151.055 32.7469 151.055 28.4661C151.055 27.379 150.859 26.1421 150.442 25.2011C153.012 25.1619 162.989 25.2011 162.989 25.2011L165.138 20.7172L165.134 20.7136ZM93.8723 28.9009C93.4125 30.4906 91.7586 31.4067 90.1832 30.9504C88.6077 30.4942 87.706 28.8332 88.1658 27.2435C88.6256 25.6538 90.2794 24.7378 91.8549 25.194C93.4303 25.6502 94.3321 27.3112 93.8723 28.9009ZM145.973 29.0898C145.509 30.6796 143.859 31.5992 142.283 31.1394C140.708 30.6831 139.803 29.0221 140.266 27.4324C140.729 25.8427 142.38 24.9231 143.955 25.3829C145.531 25.8392 146.436 27.5001 145.973 29.0898Z"
            fill="black" />
    </g>
    <defs>
        <clipPath id="clip0_348_2297">
            <rect width="174" height="37" fill="white" />
        </clipPath>
    </defs>
</svg>
    