<svg width="331" height="94" viewBox="0 0 331 94" fill="none" xmlns="http://www.w3.org/2000/svg">
    <path
        d="M82.5134 25.694L78.0178 35.3165H66.3414L51.1122 68.2782H38.1855L58.0333 25.694H82.5134Z"
        fill="white" />
    <path d="M87.7609 25.694L83.2379 35.3166H94.0192L98.4944 25.694H87.7609Z" fill="white" />
    <path
        d="M129.035 12.7556C128.297 9.75789 126.766 5.46767 119.791 2.87594C115.097 1.13007 109.713 0.358643 96.2124 0.358643H22.2801L17.313 10.685H100.811C106.338 10.685 111.052 10.7391 113.525 11.7406C118.199 13.6286 117.973 17.2624 117.577 18.8459C116.832 21.7827 113.081 25.694 108.415 25.694H104.015L99.4099 35.3165H107.458C113.013 35.3165 116.381 34.2203 119.613 32.3188C126.199 28.4413 130.832 20.1316 129.021 12.7556H129.035Z"
        fill="white" />
    <path d="M320.736 38.7542L316.807 47.2263H326.454L330.308 38.7542H320.736Z" fill="white" />
    <path d="M4.96708 0.338379L0 10.6106L11.3211 10.6918L16.1311 0.412815L4.96708 0.338379Z"
        fill="white" />
    <path
        d="M315.112 38.7136H274.002C269.227 38.7136 265.687 40.4797 261.041 43.4775C255.487 47.064 250.417 50.17 250.417 50.17C250.417 50.17 249.59 48.0858 245.628 44.1812C243.407 41.9888 236.302 36.6835 236.302 36.6835L217.513 51.6316C217.513 51.6316 217.328 48.7489 214.001 44.9527C211.432 42.0226 206.212 38.2331 204.176 36.8933C203.466 37.2181 185.961 45.1015 185.961 45.1015C185.961 45.1015 181.951 38.7203 174.237 38.7203C166.523 38.7203 162.369 42.3542 159.705 46.1978C157.013 50.0685 157.382 54.3384 157.382 54.3384C157.382 54.3384 153.44 57.0722 150.03 57.0722C148.192 57.0722 146.881 55.5361 146.785 54.2301C146.641 52.3015 147.919 49.8587 148.22 49.2158C150.939 43.3421 155.093 35.2827 155.093 35.2827H177.318L170.425 26.0121H158.495L154.478 14.0549L148.828 26.0121H130.913L126.568 35.2827H144.544L137.431 48.485C137.431 48.485 125.803 58.6895 116.75 58.6895C111.626 58.6895 110.54 54.7782 110.519 53.6346C110.505 52.6128 110.758 51.5707 111.23 50.7046C112.316 48.7286 114.796 47.2737 117.064 47.2737C121.608 47.2737 122.838 50.6978 122.838 50.6978C122.838 50.6978 127.627 46.9286 129.561 44.9527C126.472 40.9399 120.897 37.6715 113.225 39.282C101.425 41.7587 99.8812 52.1053 99.8812 52.1053C99.8812 52.1053 90.9924 58.5406 87.0501 58.5406C84.5222 58.5406 84.5359 55.6512 84.9663 54.3113C86.3737 49.8925 91.4911 40.7234 91.4911 40.7234L80.6483 40.6557C80.6483 40.6557 74.4992 52.5993 73.5837 57.776C72.2377 65.382 78.0042 68.2782 82.7731 68.2782C91.2862 68.2782 101.05 60.6045 101.05 60.6045C101.05 60.6045 103.755 68.6301 115.452 68.6301C126.11 68.6301 135.532 60.1444 135.532 60.1444C135.532 60.1444 136.475 68.1767 144.373 68.1767C151.609 68.1767 159.425 62.5331 159.425 62.5331C159.425 62.5331 163.579 68.5895 171.183 68.5895C177.735 68.5895 181.466 65.9978 184.076 63.2707C188.482 58.6692 188.523 52.9918 188.523 52.9918L202.495 46.3399C202.495 46.3399 205.618 48.2076 207.059 50.5219C208.699 53.1542 208.084 58.5271 202.413 58.5271C199.243 58.5271 197.358 55.7188 197.358 55.7188L189.835 62.0053C189.835 62.0053 193.859 68.3459 201.382 68.3459C209.69 68.3459 212.73 65.2737 216.563 62.6617C222.5 58.6151 235.55 47.2873 235.55 47.2873C235.55 47.2873 238.932 49.8452 240.107 51.1918C241.098 52.3286 241.508 53.6211 241.467 54.7782C241.433 55.6512 240.292 58.9467 235.974 58.9467C233.09 58.9467 230.856 56.4429 230.856 56.4429C230.856 56.4429 225.22 60.9632 222.787 63.1354C225.882 66.776 230.884 68.3662 235.571 68.3662C248.695 68.3662 251.92 58.9467 251.92 58.9467L257.618 55.2993C258.657 62.4519 263.474 68.2376 272.486 68.2376C280.944 68.2376 288.125 61.5587 288.125 53.4316C288.125 51.3677 287.749 49.0196 286.949 47.2331C291.876 47.1587 310.999 47.2331 310.999 47.2331L315.119 38.7203L315.112 38.7136ZM178.514 54.2572C177.633 57.2752 174.463 59.0143 171.443 58.1482C168.423 57.282 166.694 54.1286 167.576 51.1106C168.457 48.0925 171.627 46.3534 174.647 47.2196C177.667 48.0858 179.395 51.2391 178.514 54.2572ZM278.382 54.6158C277.494 57.6339 274.33 59.3797 271.31 58.5068C268.29 57.6406 266.555 54.4873 267.443 51.4692C268.331 48.4512 271.495 46.7053 274.515 47.5782C277.535 48.4444 279.27 51.5978 278.382 54.6158Z"
        fill="white" />
    <path
        d="M106.406 87.6113L105.607 89.6684H102.409L107.54 77.6301H110.417L115.534 89.6684H112.336L111.517 87.6113H106.399H106.406ZM108.961 81.1015L107.397 85.0804H110.526L108.961 81.1015Z"
        fill="white" />
    <path
        d="M124.628 81.9473C125.304 82.6511 125.639 83.5985 125.639 84.7962V89.6684H122.762V85.2496C122.762 84.0722 122.175 83.4564 121.184 83.4564C120.631 83.4564 120.118 83.7406 119.62 84.3022V89.6684H116.723V81.1353H119.62V81.697C120.351 81.1488 121.13 80.8714 121.984 80.8714C123.07 80.8714 123.958 81.2233 124.635 81.9473H124.628Z"
        fill="white" />
    <path
        d="M141.182 89.6752H138.306V89.2015C137.616 89.6413 136.83 89.8511 135.942 89.8511C134.767 89.8511 133.755 89.4316 132.922 88.5654C132.088 87.706 131.658 86.6504 131.658 85.3985C131.658 84.1466 132.081 83.091 132.922 82.2316C133.755 81.3722 134.767 80.9459 135.942 80.9459C136.83 80.9459 137.609 81.1556 138.306 81.5955V81.1353H141.182V89.6684V89.6752ZM138.306 86.718V84.0586C137.827 83.5308 137.219 83.2669 136.529 83.2669C135.375 83.2669 134.486 84.2007 134.486 85.3985C134.486 86.5962 135.375 87.5098 136.529 87.5098C137.24 87.5098 137.827 87.2459 138.306 86.718Z"
        fill="white" />
    <path
        d="M148.999 83.7067C147.701 83.7608 146.724 84.1127 146.034 84.7826V89.6751H143.137V81.142H146.034V82.0556C146.867 81.3518 147.844 80.9999 148.999 80.9999V83.7067Z"
        fill="white" />
    <path
        d="M157.334 89.5128C156.425 89.797 155.558 89.9323 154.724 89.9323C153.679 89.9323 152.825 89.5804 152.203 88.897C151.561 88.1932 151.26 87.2594 151.26 86.1158V83.5849H149.573V81.1421H151.26V78.2391H154.137V81.1421H157.068V83.5849H154.137V86.0278C154.137 86.8872 154.581 87.3135 155.489 87.3135C155.776 87.3135 156.289 87.2458 157.02 87.1037L157.341 89.5128H157.334Z"
        fill="white" />
    <path
        d="M169.359 86.1699H172.078C171.969 87.2594 171.511 88.1594 170.678 88.8428C169.858 89.5263 168.847 89.8646 167.658 89.8646C166.305 89.8646 165.191 89.4586 164.283 88.6128C163.394 87.7872 162.95 86.6977 162.95 85.3917C162.95 84.0857 163.394 83.0368 164.283 82.2045C165.191 81.3586 166.305 80.9391 167.658 80.9391C168.847 80.9391 169.858 81.291 170.678 81.9744C171.511 82.6579 171.976 83.5376 172.078 84.6338H169.359C169.216 83.8624 168.539 83.3481 167.671 83.3481C166.462 83.3481 165.697 84.194 165.697 85.3917C165.697 86.5895 166.462 87.4489 167.671 87.4489C168.539 87.4489 169.216 86.9413 169.359 86.1631V86.1699Z"
        fill="white" />
    <path
        d="M181.274 82.2113C182.142 83.0368 182.586 84.1128 182.586 85.3985C182.586 86.6842 182.142 87.794 181.274 88.6534C180.406 89.5128 179.286 89.9391 177.933 89.9391C176.58 89.9391 175.446 89.5195 174.558 88.6534C173.69 87.794 173.246 86.6977 173.246 85.3985C173.246 84.0992 173.69 83.0436 174.558 82.2113C175.446 81.3654 176.567 80.9459 177.933 80.9459C179.3 80.9459 180.4 81.3654 181.274 82.2113ZM179.873 85.412C179.873 84.2887 179.074 83.409 177.94 83.409C176.806 83.409 175.986 84.2887 175.986 85.412C175.986 86.5353 176.785 87.4692 177.94 87.4692C179.095 87.4692 179.873 86.5895 179.873 85.412Z"
        fill="white" />
    <path
        d="M197.316 81.9473C197.972 82.6511 198.314 83.5985 198.314 84.7962V89.6684H195.438V85.2496C195.438 84.0519 194.871 83.4564 193.894 83.4564C193.415 83.4564 192.971 83.6864 192.582 84.1601C192.602 84.4443 192.616 84.6541 192.616 84.7962V89.6684H189.739V85.2496C189.739 84.0519 189.172 83.4564 188.195 83.4564C187.717 83.4564 187.287 83.7 186.918 84.194V89.6684H184.021V81.1353H186.918V81.6293C187.505 81.1218 188.195 80.8714 189.029 80.8714C190.129 80.8714 191.017 81.2571 191.694 82.0353C192.561 81.2639 193.579 80.8714 194.748 80.8714C195.793 80.8714 196.667 81.2233 197.323 81.9473H197.316Z"
        fill="white" />
    <path
        d="M208.474 82.2316C209.307 83.091 209.738 84.1466 209.738 85.3985C209.738 86.6504 209.314 87.706 208.474 88.5654C207.64 89.4248 206.629 89.8511 205.454 89.8511C204.586 89.8511 203.801 89.6413 203.111 89.215V93.6338H200.214V81.1421H203.111V81.5819C203.801 81.1624 204.586 80.9459 205.454 80.9459C206.629 80.9459 207.64 81.3654 208.474 82.2316ZM206.909 85.3985C206.909 84.2007 206.042 83.2669 204.887 83.2669C204.176 83.2669 203.589 83.5308 203.111 84.0586V86.7316C203.575 87.2391 204.156 87.503 204.887 87.503C206.042 87.503 206.909 86.5895 206.909 85.3917V85.3985Z"
        fill="white" />
    <path
        d="M220.43 89.6752H217.554V89.2015C216.864 89.6414 216.078 89.8511 215.19 89.8511C214.015 89.8511 213.003 89.4316 212.17 88.5654C211.336 87.706 210.906 86.6504 210.906 85.3985C210.906 84.1466 211.33 83.091 212.17 82.2316C213.003 81.3722 214.015 80.9459 215.19 80.9459C216.078 80.9459 216.857 81.1556 217.554 81.5955V81.1353H220.43V89.6684V89.6752ZM217.554 86.718V84.0586C217.076 83.5308 216.467 83.2669 215.777 83.2669C214.623 83.2669 213.735 84.2007 213.735 85.3985C213.735 86.5962 214.623 87.5098 215.777 87.5098C216.488 87.5098 217.076 87.2459 217.554 86.718Z"
        fill="white" />
    <path
        d="M230.289 81.9474C230.965 82.6512 231.3 83.5985 231.3 84.7963V89.6684H228.424V85.2497C228.424 84.0722 227.836 83.4564 226.845 83.4564C226.292 83.4564 225.78 83.7406 225.281 84.3023V89.6684H222.384V81.1354H225.281V81.697C226.012 81.1489 226.791 80.8715 227.645 80.8715C228.731 80.8715 229.619 81.2233 230.296 81.9474H230.289Z"
        fill="white" />
    <path
        d="M237.484 93.6135H234.443L236.076 89.7767L231.99 81.1353H235.031L237.518 86.3932L239.759 81.1353H242.779L237.484 93.6067V93.6135Z"
        fill="white" />
</svg>
    