{
	"asset":{
		"generator":"Khronos glTF Blender I/O v3.5.30",
		"version":"2.0"
	},
	"scene":0,
	"scenes":[
		{
			"name":"Scene",
			"nodes":[
				0,
				1,
				2
			]
		}
	],
	"nodes":[
		{
			"mesh":0,
			"name":"Cube.001",
			"rotation":[
				-0.7069411277770996,
				0,
				0,
				0.7072724103927612
			],
			"scale":[
				0.15000000596046448,
				0.009999999776482582,
				0.19999998807907104
			],
			"translation":[
				0,
				0.009995315223932266,
				-0.004781384486705065
			]
		},
		{
			"mesh":1,
			"name":"front",
			"rotation":[
				-0.70710688829422,
				0,
				0,
				0.7071066498756409
			],
			"scale":[
				0.14000000059604645,
				1,
				0.1900000274181366
			],
			"translation":[
				0,
				0.009999999776482582,
				-0.01478579081594944
			]
		},
		{
			"mesh":2,
			"name":"back",
			"rotation":[
				0,
				-0.7071068286895752,
				-0.7071068286895752,
				3.090862321641907e-08
			],
			"scale":[
				0.14000003039836884,
				1,
				0.1900000274181366
			],
			"translation":[
				0,
				0.009999999776482582,
				0.007000000216066837
			]
		}
	],
	"materials":[
		{
			"doubleSided":true,
			"name":"FrameMaterial",
			"pbrMetallicRoughness":{
				"baseColorFactor":[
					0,
					0,
					0,
					1
				],
				"metallicFactor":0,
				"roughnessFactor":0.4000000059604645
			}
		},
		{
			"doubleSided":true,
			"name":"PlaneMaterial",
			"pbrMetallicRoughness":{
				"metallicFactor":0,
				"roughnessFactor":0.4000000059604645
			}
		},
		{
			"doubleSided":true,
			"name":"PlaneMaterial.001",
			"pbrMetallicRoughness":{
				"metallicFactor":0,
				"roughnessFactor":0.4000000059604645
			}
		}
	],
	"meshes":[
		{
			"name":"Cube.001",
			"primitives":[
				{
					"attributes":{
						"POSITION":0,
						"TEXCOORD_0":1,
						"NORMAL":2
					},
					"indices":3,
					"material":0
				}
			]
		},
		{
			"name":"Plane",
			"primitives":[
				{
					"attributes":{
						"POSITION":4,
						"TEXCOORD_0":5,
						"NORMAL":6
					},
					"indices":7,
					"material":1
				}
			]
		},
		{
			"name":"Plane.001",
			"primitives":[
				{
					"attributes":{
						"POSITION":8,
						"TEXCOORD_0":9,
						"NORMAL":10
					},
					"indices":7,
					"material":2
				}
			]
		}
	],
	"accessors":[
		{
			"bufferView":0,
			"componentType":5126,
			"count":48,
			"max":[
				0.5000000596046448,
				0.5,
				0.5
			],
			"min":[
				-0.5000000596046448,
				-0.5,
				-0.5
			],
			"type":"VEC3"
		},
		{
			"bufferView":1,
			"componentType":5126,
			"count":48,
			"type":"VEC2"
		},
		{
			"bufferView":2,
			"componentType":5126,
			"count":48,
			"type":"VEC3"
		},
		{
			"bufferView":3,
			"componentType":5123,
			"count":96,
			"type":"SCALAR"
		},
		{
			"bufferView":4,
			"componentType":5126,
			"count":4,
			"max":[
				0.5,
				-0.012143764644861221,
				0.5
			],
			"min":[
				-0.5,
				-0.012143764644861221,
				-0.5
			],
			"type":"VEC3"
		},
		{
			"bufferView":5,
			"componentType":5126,
			"count":4,
			"type":"VEC2"
		},
		{
			"bufferView":6,
			"componentType":5126,
			"count":4,
			"type":"VEC3"
		},
		{
			"bufferView":7,
			"componentType":5123,
			"count":6,
			"type":"SCALAR"
		},
		{
			"bufferView":8,
			"componentType":5126,
			"count":4,
			"max":[
				0.5,
				-0.01023527979850769,
				0.5
			],
			"min":[
				-0.5,
				-0.01023527979850769,
				-0.5
			],
			"type":"VEC3"
		},
		{
			"bufferView":9,
			"componentType":5126,
			"count":4,
			"type":"VEC2"
		},
		{
			"bufferView":10,
			"componentType":5126,
			"count":4,
			"type":"VEC3"
		}
	],
	"bufferViews":[
		{
			"buffer":0,
			"byteLength":576,
			"byteOffset":0,
			"target":34962
		},
		{
			"buffer":0,
			"byteLength":384,
			"byteOffset":576,
			"target":34962
		},
		{
			"buffer":0,
			"byteLength":576,
			"byteOffset":960,
			"target":34962
		},
		{
			"buffer":0,
			"byteLength":192,
			"byteOffset":1536,
			"target":34963
		},
		{
			"buffer":0,
			"byteLength":48,
			"byteOffset":1728,
			"target":34962
		},
		{
			"buffer":0,
			"byteLength":32,
			"byteOffset":1776,
			"target":34962
		},
		{
			"buffer":0,
			"byteLength":48,
			"byteOffset":1808,
			"target":34962
		},
		{
			"buffer":0,
			"byteLength":12,
			"byteOffset":1856,
			"target":34963
		},
		{
			"buffer":0,
			"byteLength":48,
			"byteOffset":1868,
			"target":34962
		},
		{
			"buffer":0,
			"byteLength":32,
			"byteOffset":1916,
			"target":34962
		},
		{
			"buffer":0,
			"byteLength":48,
			"byteOffset":1948,
			"target":34962
		}
	],
	"buffers":[
		{
			"byteLength":1996,
			"uri":"data:application/octet-stream;base64,"
		}
	]
}
