<?xml version="1.0" encoding="UTF-8"?>
<svg id="Layer_2" data-name="Layer 2" xmlns="http://www.w3.org/2000/svg" viewBox="0 0 435.29 417.04">
  <g id="Layer_1-2" data-name="Layer 1">
    <polygon points="217.35 381.91 212.88 372.45 149.33 190.41 216.81 0 287.69 190.48 217.35 381.91"/>
    <polygon points="151.54 241.89 219.96 380.05 80.41 314.69 14.49 174.59 151.54 241.89"/>
    <polygon points="418.98 174.59 353.61 313 214.64 378.93 282.68 240.95 418.98 174.59"/>
    <polygon points="222.21 376.76 111.09 417.04 2.73 379.04 0 376.77 111.11 339.87 222.21 376.76"/>
    <polygon points="435.29 375.81 432.55 378.09 325.27 416.09 213.05 376.36 324.19 338.87 435.29 375.81"/>
    <polygon points="238.05 387.96 247.91 411.64 227.52 400.73 217.53 376.57 238.05 387.96"/>
    <polygon points="218.62 374.53 210.42 416.39 226.81 416.39 218.62 374.53"/>
    <polygon points="199.05 388.13 189.19 411.81 209.58 400.9 219.57 376.74 199.05 388.13"/>
  </g>
</svg>