<svg width="350" height="440" viewBox="0 0 350 440" fill="none" xmlns="http://www.w3.org/2000/svg">
    <g opacity="0.1" filter="url(#filter0_f_2013_423)">
        <path d="M187 120L163 120" stroke="url(#paint0_linear_2013_423)" stroke-width="60"
            stroke-linecap="round" />
    </g>
    <g opacity="0.5" filter="url(#filter1_f_2013_423)">
        <path d="M187 120L163 120" stroke="url(#paint1_linear_2013_423)" stroke-width="8"
            stroke-linecap="round" />
    </g>
    <g filter="url(#filter2_d_2013_423)">
        <path d="M187 120L163 120" stroke="url(#paint2_linear_2013_423)" stroke-width="4"
            stroke-linecap="round" />
    </g>
    <g filter="url(#filter3_f_2013_423)">
        <path d="M187 120L163 120" stroke="white" stroke-width="1.5" stroke-linecap="round" />
    </g>
    <g opacity="0.5">
        <path d="M175 202L175 120" stroke="white" stroke-width="2" style="mix-blend-mode:soft-light" />
    </g>
    <g opacity="0.1" filter="url(#filter4_f_2013_423)">
        <path
            d="M113.725 264.999C113.725 231.158 141.159 203.724 175 203.724C208.841 203.724 236.275 231.158 236.275 264.999C236.275 298.84 208.841 326.274 175 326.274C141.159 326.274 113.725 298.84 113.725 264.999Z"
            stroke="url(#paint3_linear_2013_423)" stroke-width="61.875" stroke-linecap="round" />
    </g>
    <g opacity="0.35" filter="url(#filter5_f_2013_423)">
        <path
            d="M113.725 264.999C113.725 231.158 141.159 203.724 175 203.724C208.841 203.724 236.275 231.158 236.275 264.999C236.275 298.84 208.841 326.274 175 326.274C141.159 326.274 113.725 298.84 113.725 264.999Z"
            stroke="url(#paint4_linear_2013_423)" stroke-width="13.75" stroke-linecap="round" />
    </g>
    <g filter="url(#filter6_d_2013_423)">
        <path
            d="M113.725 264.999C113.725 231.158 141.159 203.724 175 203.724C208.841 203.724 236.275 231.158 236.275 264.999C236.275 298.84 208.841 326.274 175 326.274C141.159 326.274 113.725 298.84 113.725 264.999Z"
            stroke="url(#paint5_linear_2013_423)" stroke-width="5.5" stroke-linecap="round" />
    </g>
    <g filter="url(#filter7_f_2013_423)">
        <path
            d="M113.725 264.999C113.725 231.158 141.159 203.724 175 203.724C208.841 203.724 236.275 231.158 236.275 264.999C236.275 298.84 208.841 326.274 175 326.274C141.159 326.274 113.725 298.84 113.725 264.999Z"
            stroke="white" stroke-width="2.0625" stroke-linecap="round" />
    </g>
    <g opacity="0.1" filter="url(#filter8_f_2013_423)">
        <path
            d="M174.514 280.751C175.702 280.913 176.917 280.994 178.159 280.994L189.472 287.717C191.389 288.878 193.792 287.312 193.522 285.071L192.469 276.539C198.247 272.49 202 266.037 202 258.747C202 246.463 191.335 236.5 178.159 236.5C164.983 236.5 154.318 246.463 154.318 258.747C154.318 259.449 154.345 260.124 154.426 260.799M174.514 280.751C176.512 278.402 177.7 275.432 177.7 272.22C177.7 264.552 171.058 258.342 162.85 258.342C159.718 258.342 156.829 259.233 154.426 260.799M174.514 280.751C171.841 283.991 167.602 286.07 162.85 286.07L155.803 290.255C154.615 290.984 153.103 289.985 153.265 288.608L153.94 283.289C150.322 280.778 148 276.755 148 272.22C148 267.468 150.538 263.283 154.426 260.799"
            stroke="url(#paint6_linear_2013_423)" stroke-width="61.875" stroke-linecap="round"
            stroke-linejoin="round" />
    </g>
    <g opacity="0.35" filter="url(#filter9_f_2013_423)">
        <path
            d="M174.514 280.751C175.702 280.913 176.917 280.994 178.159 280.994L189.472 287.717C191.389 288.878 193.792 287.312 193.522 285.071L192.469 276.539C198.247 272.49 202 266.037 202 258.747C202 246.463 191.335 236.5 178.159 236.5C164.983 236.5 154.318 246.463 154.318 258.747C154.318 259.449 154.345 260.124 154.426 260.799M174.514 280.751C176.512 278.402 177.7 275.432 177.7 272.22C177.7 264.552 171.058 258.342 162.85 258.342C159.718 258.342 156.829 259.233 154.426 260.799M174.514 280.751C171.841 283.991 167.602 286.07 162.85 286.07L155.803 290.255C154.615 290.984 153.103 289.985 153.265 288.608L153.94 283.289C150.322 280.778 148 276.755 148 272.22C148 267.468 150.538 263.283 154.426 260.799"
            stroke="url(#paint7_linear_2013_423)" stroke-width="13.75" stroke-linecap="round"
            stroke-linejoin="round" />
    </g>
    <g filter="url(#filter10_d_2013_423)">
        <path
            d="M174.514 280.751C175.702 280.913 176.917 280.994 178.159 280.994L189.472 287.717C191.389 288.878 193.792 287.312 193.522 285.071L192.469 276.539C198.247 272.49 202 266.037 202 258.747C202 246.463 191.335 236.5 178.159 236.5C164.983 236.5 154.318 246.463 154.318 258.747C154.318 259.449 154.345 260.124 154.426 260.799M174.514 280.751C176.512 278.402 177.7 275.432 177.7 272.22C177.7 264.552 171.058 258.342 162.85 258.342C159.718 258.342 156.829 259.233 154.426 260.799M174.514 280.751C171.841 283.991 167.602 286.07 162.85 286.07L155.803 290.255C154.615 290.984 153.103 289.985 153.265 288.608L153.94 283.289C150.322 280.778 148 276.755 148 272.22C148 267.468 150.538 263.283 154.426 260.799"
            stroke="url(#paint8_linear_2013_423)" stroke-width="5.5" stroke-linecap="round"
            stroke-linejoin="round" />
    </g>
    <g filter="url(#filter11_d_2013_423)">
        <path
            d="M174.514 280.751C175.702 280.913 176.917 280.994 178.159 280.994L189.472 287.717C191.389 288.878 193.792 287.312 193.522 285.071L192.469 276.539C198.247 272.49 202 266.037 202 258.747C202 246.463 191.335 236.5 178.159 236.5C164.983 236.5 154.318 246.463 154.318 258.747C154.318 259.449 154.345 260.124 154.426 260.799M174.514 280.751C176.512 278.402 177.7 275.432 177.7 272.22C177.7 264.552 171.058 258.342 162.85 258.342C159.718 258.342 156.829 259.233 154.426 260.799M174.514 280.751C171.841 283.991 167.602 286.07 162.85 286.07L155.803 290.255C154.615 290.984 153.103 289.985 153.265 288.608L153.94 283.289C150.322 280.778 148 276.755 148 272.22C148 267.468 150.538 263.283 154.426 260.799"
            stroke="white" stroke-width="2.0625" stroke-linecap="round" stroke-linejoin="round" />
    </g>
    <defs>
        <filter id="filter0_f_2013_423" x="43" y="0" width="264" height="240"
            filterUnits="userSpaceOnUse" color-interpolation-filters="sRGB">
            <feFlood flood-opacity="0" result="BackgroundImageFix" />
            <feBlend mode="normal" in="SourceGraphic" in2="BackgroundImageFix" result="shape" />
            <feGaussianBlur stdDeviation="45" result="effect1_foregroundBlur_2013_423" />
        </filter>
        <filter id="filter1_f_2013_423" x="151" y="108" width="48" height="24"
            filterUnits="userSpaceOnUse" color-interpolation-filters="sRGB">
            <feFlood flood-opacity="0" result="BackgroundImageFix" />
            <feBlend mode="normal" in="SourceGraphic" in2="BackgroundImageFix" result="shape" />
            <feGaussianBlur stdDeviation="4" result="effect1_foregroundBlur_2013_423" />
        </filter>
        <filter id="filter2_d_2013_423" x="156" y="116" width="40" height="16"
            filterUnits="userSpaceOnUse" color-interpolation-filters="sRGB">
            <feFlood flood-opacity="0" result="BackgroundImageFix" />
            <feColorMatrix in="SourceAlpha" type="matrix"
                values="0 0 0 0 0 0 0 0 0 0 0 0 0 0 0 0 0 0 127 0" result="hardAlpha" />
            <feOffset dx="1" dy="4" />
            <feGaussianBlur stdDeviation="3" />
            <feColorMatrix type="matrix"
                values="0 0 0 0 0.0823529 0 0 0 0 0.0745098 0 0 0 0 0.137255 0 0 0 1 0" />
            <feBlend mode="normal" in2="BackgroundImageFix" result="effect1_dropShadow_2013_423" />
            <feBlend mode="normal" in="SourceGraphic" in2="effect1_dropShadow_2013_423"
                result="shape" />
        </filter>
        <filter id="filter3_f_2013_423" x="161.5" y="118.5" width="27" height="3"
            filterUnits="userSpaceOnUse" color-interpolation-filters="sRGB">
            <feFlood flood-opacity="0" result="BackgroundImageFix" />
            <feBlend mode="normal" in="SourceGraphic" in2="BackgroundImageFix" result="shape" />
            <feGaussianBlur stdDeviation="0.375" result="effect1_foregroundBlur_2013_423" />
        </filter>
        <filter id="filter4_f_2013_423" x="0.287598" y="90.2866" width="349.425" height="349.425"
            filterUnits="userSpaceOnUse" color-interpolation-filters="sRGB">
            <feFlood flood-opacity="0" result="BackgroundImageFix" />
            <feBlend mode="normal" in="SourceGraphic" in2="BackgroundImageFix" result="shape" />
            <feGaussianBlur stdDeviation="41.25" result="effect1_foregroundBlur_2013_423" />
        </filter>
        <filter id="filter5_f_2013_423" x="84.8501" y="174.849" width="180.3" height="180.3"
            filterUnits="userSpaceOnUse" color-interpolation-filters="sRGB">
            <feFlood flood-opacity="0" result="BackgroundImageFix" />
            <feBlend mode="normal" in="SourceGraphic" in2="BackgroundImageFix" result="shape" />
            <feGaussianBlur stdDeviation="11" result="effect1_foregroundBlur_2013_423" />
        </filter>
        <filter id="filter6_d_2013_423" x="104.1" y="198.224" width="144.55" height="144.55"
            filterUnits="userSpaceOnUse" color-interpolation-filters="sRGB">
            <feFlood flood-opacity="0" result="BackgroundImageFix" />
            <feColorMatrix in="SourceAlpha" type="matrix"
                values="0 0 0 0 0 0 0 0 0 0 0 0 0 0 0 0 0 0 127 0" result="hardAlpha" />
            <feOffset dx="1.375" dy="5.5" />
            <feGaussianBlur stdDeviation="4.125" />
            <feColorMatrix type="matrix"
                values="0 0 0 0 0.0823529 0 0 0 0 0.0745098 0 0 0 0 0.137255 0 0 0 1 0" />
            <feBlend mode="normal" in2="BackgroundImageFix" result="effect1_dropShadow_2013_423" />
            <feBlend mode="normal" in="SourceGraphic" in2="effect1_dropShadow_2013_423"
                result="shape" />
        </filter>
        <filter id="filter7_f_2013_423" x="111.663" y="201.662" width="126.675" height="126.675"
            filterUnits="userSpaceOnUse" color-interpolation-filters="sRGB">
            <feFlood flood-opacity="0" result="BackgroundImageFix" />
            <feBlend mode="normal" in="SourceGraphic" in2="BackgroundImageFix" result="shape" />
            <feGaussianBlur stdDeviation="0.515625" result="effect1_foregroundBlur_2013_423" />
        </filter>
        <filter id="filter8_f_2013_423" x="34.5625" y="123.062" width="280.875" height="281.028"
            filterUnits="userSpaceOnUse" color-interpolation-filters="sRGB">
            <feFlood flood-opacity="0" result="BackgroundImageFix" />
            <feBlend mode="normal" in="SourceGraphic" in2="BackgroundImageFix" result="shape" />
            <feGaussianBlur stdDeviation="41.25" result="effect1_foregroundBlur_2013_423" />
        </filter>
        <filter id="filter9_f_2013_423" x="119.125" y="207.625" width="111.75" height="111.784"
            filterUnits="userSpaceOnUse" color-interpolation-filters="sRGB">
            <feFlood flood-opacity="0" result="BackgroundImageFix" />
            <feBlend mode="normal" in="SourceGraphic" in2="BackgroundImageFix" result="shape" />
            <feGaussianBlur stdDeviation="11" result="effect1_foregroundBlur_2013_423" />
        </filter>
        <filter id="filter10_d_2013_423" x="135.625" y="228.25" width="81.5" height="81.5137"
            filterUnits="userSpaceOnUse" color-interpolation-filters="sRGB">
            <feFlood flood-opacity="0" result="BackgroundImageFix" />
            <feColorMatrix in="SourceAlpha" type="matrix"
                values="0 0 0 0 0 0 0 0 0 0 0 0 0 0 0 0 0 0 127 0" result="hardAlpha" />
            <feOffset dx="1.375" dy="5.5" />
            <feGaussianBlur stdDeviation="5.5" />
            <feColorMatrix type="matrix" values="0 0 0 0 0 0 0 0 0 0 0 0 0 0 0 0 0 0 0.5 0" />
            <feBlend mode="normal" in2="BackgroundImageFix" result="effect1_dropShadow_2013_423" />
            <feBlend mode="normal" in="SourceGraphic" in2="effect1_dropShadow_2013_423"
                result="shape" />
        </filter>
        <filter id="filter11_d_2013_423" x="140.094" y="232.719" width="72.5625" height="72.5674"
            filterUnits="userSpaceOnUse" color-interpolation-filters="sRGB">
            <feFlood flood-opacity="0" result="BackgroundImageFix" />
            <feColorMatrix in="SourceAlpha" type="matrix"
                values="0 0 0 0 0 0 0 0 0 0 0 0 0 0 0 0 0 0 127 0" result="hardAlpha" />
            <feOffset dx="1.375" dy="5.5" />
            <feGaussianBlur stdDeviation="4.125" />
            <feColorMatrix type="matrix"
                values="0 0 0 0 0.0823529 0 0 0 0 0.0745098 0 0 0 0 0.137255 0 0 0 1 0" />
            <feBlend mode="normal" in2="BackgroundImageFix" result="effect1_dropShadow_2013_423" />
            <feBlend mode="normal" in="SourceGraphic" in2="effect1_dropShadow_2013_423"
                result="shape" />
        </filter>
        <linearGradient id="paint0_linear_2013_423" x1="194.92" y1="119.914" x2="194.914"
            y2="121.342" gradientUnits="userSpaceOnUse">
            <stop stop-color="#7559FF" />
            <stop offset="1" stop-color="#FF33DD" />
        </linearGradient>
        <linearGradient id="paint1_linear_2013_423" x1="187" y1="120" x2="186.912" y2="122.038"
            gradientUnits="userSpaceOnUse">
            <stop stop-color="#FF8C1A" />
            <stop offset="1" stop-color="#E62E5C" />
        </linearGradient>
        <linearGradient id="paint2_linear_2013_423" x1="187" y1="120" x2="186.912" y2="122.038"
            gradientUnits="userSpaceOnUse">
            <stop stop-color="#FF8C1A" />
            <stop offset="1" stop-color="#E62E5C" />
        </linearGradient>
        <linearGradient id="paint3_linear_2013_423" x1="103.213" y1="163.283" x2="276.535"
            y2="180.107" gradientUnits="userSpaceOnUse">
            <stop stop-color="#7559FF" />
            <stop offset="1" stop-color="#FF93ED" />
        </linearGradient>
        <linearGradient id="paint4_linear_2013_423" x1="103.213" y1="163.283" x2="276.535"
            y2="180.107" gradientUnits="userSpaceOnUse">
            <stop stop-color="#7559FF" />
            <stop offset="1" stop-color="#FF93ED" />
        </linearGradient>
        <linearGradient id="paint5_linear_2013_423" x1="103.213" y1="163.283" x2="276.535"
            y2="180.107" gradientUnits="userSpaceOnUse">
            <stop stop-color="#7559FF" />
            <stop offset="1" stop-color="#FF93ED" />
        </linearGradient>
        <linearGradient id="paint6_linear_2013_423" x1="148" y1="236.5" x2="200.876" y2="291.579"
            gradientUnits="userSpaceOnUse">
            <stop stop-color="#FF8C1A" />
            <stop offset="1" stop-color="#E62E5C" />
        </linearGradient>
        <linearGradient id="paint7_linear_2013_423" x1="148" y1="236.5" x2="200.876" y2="291.579"
            gradientUnits="userSpaceOnUse">
            <stop stop-color="#FF8C1A" />
            <stop offset="1" stop-color="#E62E5C" />
        </linearGradient>
        <linearGradient id="paint8_linear_2013_423" x1="135.851" y1="223.186" x2="217.44"
            y2="309.372" gradientUnits="userSpaceOnUse">
            <stop stop-color="#FF8C1A" />
            <stop offset="1" stop-color="#E62E5C" />
        </linearGradient>
    </defs>
</svg>
    