<svg width="1080" height="152" viewBox="0 0 1080 152" fill="none" xmlns="http://www.w3.org/2000/svg">
    <mask id="path-1-inside-1_9_7350" fill="white">
        <path
            d="M0 20C0 8.9543 8.95431 0 20 0H1060C1071.05 0 1080 8.95431 1080 20V132C1080 143.046 1071.05 152 1060 152H20C8.95429 152 0 143.046 0 132V20Z" />
    </mask>
    <path
        d="M0 20C0 8.9543 8.95431 0 20 0H1060C1071.05 0 1080 8.95431 1080 20V132C1080 143.046 1071.05 152 1060 152H20C8.95429 152 0 143.046 0 132V20Z"
        fill="#372F67" />
    <path
        d="M0 20C0 8.9543 8.95431 0 20 0H1060C1071.05 0 1080 8.95431 1080 20V132C1080 143.046 1071.05 152 1060 152H20C8.95429 152 0 143.046 0 132V20Z"
        fill="url(#paint0_linear_9_7350)" style="mix-blend-mode:soft-light" />
    <path
        d="M20 2H1060V-2H20V2ZM1078 20V132H1082V20H1078ZM1060 150H20V154H1060V150ZM2 132V20H-2V132H2ZM20 150C10.0589 150 2 141.941 2 132H-2C-2 144.15 7.84972 154 20 154V150ZM1078 132C1078 141.941 1069.94 150 1060 150V154C1072.15 154 1082 144.15 1082 132H1078ZM1060 2C1069.94 2 1078 10.0589 1078 20H1082C1082 7.84974 1072.15 -2 1060 -2V2ZM20 -2C7.84974 -2 -2 7.84973 -2 20H2C2 10.0589 10.0589 2 20 2V-2Z"
        fill="white" fill-opacity="0.5" style="mix-blend-mode:soft-light"
        mask="url(#path-1-inside-1_9_7350)" />
    <defs>
        <linearGradient id="paint0_linear_9_7350" x1="540" y1="0" x2="540" y2="152"
            gradientUnits="userSpaceOnUse">
            <stop stop-color="white" stop-opacity="0.75" />
            <stop offset="1" stop-color="white" stop-opacity="0.25" />
        </linearGradient>
    </defs>
</svg>
    