<svg viewBox="0 0 15 26" xmlns="http://www.w3.org/2000/svg">
    <path
        d="M14.3925 18.836C14.3925 22.076 12.2325 24.812 9.28052 25.712L7.62452 22.4C9.42452 22.184 10.7925 20.672 10.7925 18.836C10.7925 18.26 10.6845 17.684 10.4325 17.216L7.62452 11.6C9.42452 11.384 10.7925 9.872 10.7925 8.036C10.7925 7.46 10.6845 6.92 10.4325 6.452L7.62452 0.872C11.4045 1.088 14.3925 4.22 14.3925 8.036C14.3925 10.34 13.3125 12.248 11.6205 13.436C13.3125 14.624 14.3925 16.532 14.3925 18.836ZM4.99652 22.4L6.79652 26H0.0285157V0.872H4.99652L6.79652 4.472H3.62852V11.636H4.99652L6.79652 15.236H3.62852V22.4H4.99652Z"
        fill="black" />
</svg>
    