<svg viewBox="0 0 15 26" xmlns="http://www.w3.org/2000/svg">
    <path
        d="M14.4912 8.072H10.8912C10.8912 7.496 10.7832 6.92 10.5312 6.452L7.72324 0.907999C11.5032 1.124 14.4912 4.256 14.4912 8.072ZM5.23923 1.16L6.89523 4.472C5.09523 4.688 3.72723 6.236 3.72723 8.072V18.836C3.72723 19.412 3.83523 19.952 4.08723 20.42L6.85923 26C3.07923 25.784 0.127234 22.652 0.127234 18.836V8.072C0.127234 4.832 2.28723 2.06 5.23923 1.16ZM10.8912 18.836H14.4912C14.4912 22.076 12.3312 24.812 9.37924 25.712L7.72324 22.4C9.52323 22.184 10.8912 20.672 10.8912 18.836Z"
        fill="black" />
</svg>
    