<svg viewBox="0 0 16 26" xmlns="http://www.w3.org/2000/svg">
    <path
        d="M15.1748 8.036V18.836C15.1748 22.076 13.0148 24.812 10.0628 25.712L8.40683 22.4C10.2068 22.184 11.5748 20.672 11.5748 18.836V8.036C11.5748 7.46 11.4668 6.92 11.2148 6.452L8.40683 0.872C12.1868 1.088 15.1748 4.22 15.1748 8.036ZM5.92283 1.16L7.57883 4.472C5.77883 4.688 4.41083 6.2 4.41083 8.036V18.836C4.41083 19.412 4.51883 19.952 4.77083 20.42L7.54283 25.964C3.76283 25.748 0.810828 22.652 0.810828 18.836V8.036C0.810828 4.796 2.97083 2.06 5.92283 1.16Z"
        fill="black" />
</svg>
    