<svg viewBox="0 0 16 26" xmlns="http://www.w3.org/2000/svg">
    <path
        d="M15.1831 8.036H11.5831C11.5831 7.46 11.4751 6.92 11.2231 6.452L8.41513 0.872C12.1951 1.088 15.1831 4.22 15.1831 8.036ZM4.77913 9.656L7.58713 15.2C3.80713 14.984 0.819125 11.852 0.819125 8.036C0.819125 4.796 2.97913 2.06 5.93113 1.16L7.58713 4.472C5.78713 4.688 4.41913 6.2 4.41913 8.036C4.41913 8.612 4.52713 9.188 4.77913 9.656ZM15.1831 18.836C15.1831 22.076 13.0231 24.812 10.0711 25.712L8.41513 22.4C10.2151 22.184 11.5831 20.672 11.5831 18.836C11.5831 18.26 11.4751 17.684 11.2231 17.216L8.41513 11.672C12.1951 11.888 15.1831 15.02 15.1831 18.836ZM4.77913 20.42L7.58713 25.964C3.80713 25.748 0.819125 22.652 0.819125 18.836H4.41913C4.41913 19.412 4.52713 19.952 4.77913 20.42Z"
        fill="black" />
</svg>
    