<svg width="36" height="24" viewBox="0 0 36 24" fill="none" xmlns="http://www.w3.org/2000/svg">
    <g clip-path="url(#clip0_280_4953)">
        <path d="M36 0H0V24H36V0Z" fill="#003399" />
        <path d="M18.0044 2.66675L17.5924 3.93482L18.2264 4.14083L18.0044 2.66675Z" fill="#FFCC00" />
        <path d="M18.0044 2.66675L18.4164 3.93482L17.7824 4.14083L18.0044 2.66675Z" fill="#FFCC00" />
        <path d="M19.272 3.58813H17.9386V4.2548L19.272 3.58813Z" fill="#FFCC00" />
        <path d="M19.272 3.58813L18.1933 4.37185L17.8014 3.8325L19.272 3.58813Z" fill="#FFCC00" />
        <path d="M18.7852 5.07806L18.3731 3.80998L17.7391 4.01599L18.7852 5.07806Z" fill="#FFCC00" />
        <path d="M18.7852 5.07806L17.7065 4.29434L18.0983 3.755L18.7852 5.07806Z" fill="#FFCC00" />
        <path d="M16.7388 3.58813H18.0721V4.2548L16.7388 3.58813Z" fill="#FFCC00" />
        <path d="M16.7388 3.58813L17.8175 4.37185L18.2093 3.8325L16.7388 3.58813Z" fill="#FFCC00" />
        <path d="M17.2231 5.07849L17.6352 3.81042L18.2692 4.01643L17.2231 5.07849Z" fill="#FFCC00" />
        <path d="M17.2231 5.07849L18.3018 4.29478L17.91 3.75543L17.2231 5.07849Z" fill="#FFCC00" />
        <path d="M18.0044 18.6667L17.5924 19.9348L18.2264 20.1408L18.0044 18.6667Z" fill="#FFCC00" />
        <path d="M18.0044 18.6667L18.4164 19.9348L17.7824 20.1408L18.0044 18.6667Z" fill="#FFCC00" />
        <path d="M19.2695 19.5881H17.9362V20.2548L19.2695 19.5881Z" fill="#FFCC00" />
        <path d="M19.2695 19.5881L18.1908 20.3718L17.799 19.8325L19.2695 19.5881Z" fill="#FFCC00" />
        <path d="M18.7852 21.0785L18.3731 19.8104L17.7391 20.0164L18.7852 21.0785Z" fill="#FFCC00" />
        <path d="M18.7852 21.0785L17.7065 20.2948L18.0983 19.7554L18.7852 21.0785Z" fill="#FFCC00" />
        <path d="M16.7388 19.5881H18.0721V20.2548L16.7388 19.5881Z" fill="#FFCC00" />
        <path d="M16.7388 19.5881L17.8175 20.3718L18.2093 19.8325L16.7388 19.5881Z" fill="#FFCC00" />
        <path d="M17.2231 21.0785L17.6352 19.8104L18.2692 20.0164L17.2231 21.0785Z" fill="#FFCC00" />
        <path d="M17.2231 21.0785L18.3018 20.2948L17.91 19.7554L17.2231 21.0785Z" fill="#FFCC00" />
        <path d="M10.0044 10.667L9.59237 11.9351L10.2264 12.1411L10.0044 10.667Z" fill="#FFCC00" />
        <path d="M10.0044 10.667L10.4164 11.9351L9.78238 12.1411L10.0044 10.667Z" fill="#FFCC00" />
        <path d="M11.2676 11.5884H9.93425V12.255L11.2676 11.5884Z" fill="#FFCC00" />
        <path d="M11.2676 11.5884L10.1889 12.3721L9.79703 11.8327L11.2676 11.5884Z" fill="#FFCC00" />
        <path d="M10.7832 13.0787L10.3712 11.8107L9.73714 12.0167L10.7832 13.0787Z" fill="#FFCC00" />
        <path d="M10.7832 13.0787L9.70451 12.295L10.0964 11.7557L10.7832 13.0787Z" fill="#FFCC00" />
        <path d="M8.73682 11.5884H10.0701V12.255L8.73682 11.5884Z" fill="#FFCC00" />
        <path d="M8.73682 11.5884L9.81551 12.3721L10.2074 11.8327L8.73682 11.5884Z" fill="#FFCC00" />
        <path d="M9.22119 13.0785L9.63321 11.8105L10.2673 12.0165L9.22119 13.0785Z" fill="#FFCC00" />
        <path d="M9.22119 13.0785L10.2999 12.2948L9.90802 11.7555L9.22119 13.0785Z" fill="#FFCC00" />
        <path d="M13.2148 6.15064L14.2935 5.36693L13.9017 4.82758L13.2148 6.15064Z" fill="#FFCC00" />
        <path d="M13.2148 6.15064L13.6269 4.88257L14.2609 5.08858L13.2148 6.15064Z" fill="#FFCC00" />
        <path d="M12.7324 4.65992L13.8111 5.44363L14.203 4.90429L12.7324 4.65992Z" fill="#FFCC00" />
        <path d="M12.7324 4.65992H14.0658V5.32659L12.7324 4.65992Z" fill="#FFCC00" />
        <path d="M14.002 3.73853L13.5899 5.00661L14.224 5.21262L14.002 3.73853Z" fill="#FFCC00" />
        <path d="M14.002 3.73853L14.414 5.00661L13.7799 5.21262L14.002 3.73853Z" fill="#FFCC00" />
        <path d="M14.7871 6.15086L13.7084 5.36715L14.1003 4.82781L14.7871 6.15086Z" fill="#FFCC00" />
        <path d="M14.7871 6.15086L14.3751 4.88279L13.741 5.0888L14.7871 6.15086Z" fill="#FFCC00" />
        <path d="M15.2715 4.65948L14.1928 5.44319L13.8009 4.90385L15.2715 4.65948Z" fill="#FFCC00" />
        <path d="M15.2715 4.65948H13.9382V5.32614L15.2715 4.65948Z" fill="#FFCC00" />
        <path d="M11.853 9.07858L11.441 7.81051L10.807 8.01652L11.853 9.07858Z" fill="#FFCC00" />
        <path d="M11.853 9.07858L10.7743 8.29487L11.1662 7.75552L11.853 9.07858Z" fill="#FFCC00" />
        <path d="M10.2871 9.0791L11.3658 8.29539L10.9739 7.75604L10.2871 9.0791Z" fill="#FFCC00" />
        <path d="M10.2871 9.0791L10.6991 7.81103L11.3332 8.01704L10.2871 9.0791Z" fill="#FFCC00" />
        <path d="M9.80078 7.58789L10.8795 8.3716L11.2713 7.83226L9.80078 7.58789Z" fill="#FFCC00" />
        <path d="M9.80078 7.58789H11.1341V8.25456L9.80078 7.58789Z" fill="#FFCC00" />
        <path d="M12.3418 7.58789L11.2631 8.3716L10.8713 7.83226L12.3418 7.58789Z" fill="#FFCC00" />
        <path d="M12.3418 7.58789H11.0085V8.25456L12.3418 7.58789Z" fill="#FFCC00" />
        <path d="M11.0723 6.6665L11.4843 7.93458L10.8503 8.14059L11.0723 6.6665Z" fill="#FFCC00" />
        <path d="M11.0723 6.6665L10.6602 7.93458L11.2943 8.14059L11.0723 6.6665Z" fill="#FFCC00" />
        <path d="M12.3379 15.5881H11.0046V16.2548L12.3379 15.5881Z" fill="#FFCC00" />
        <path d="M12.3379 15.5881L11.2592 16.3718L10.8673 15.8325L12.3379 15.5881Z" fill="#FFCC00" />
        <path d="M11.853 17.0781L11.441 15.81L10.807 16.0161L11.853 17.0781Z" fill="#FFCC00" />
        <path d="M11.853 17.0781L10.7743 16.2944L11.1662 15.7551L11.853 17.0781Z" fill="#FFCC00" />
        <path d="M10.2847 17.0788L11.3634 16.2951L10.9715 15.7558L10.2847 17.0788Z" fill="#FFCC00" />
        <path d="M10.2847 17.0788L10.6967 15.8108L11.3307 16.0168L10.2847 17.0788Z" fill="#FFCC00" />
        <path d="M11.0684 14.6665L11.4804 15.9346L10.8463 16.1406L11.0684 14.6665Z" fill="#FFCC00" />
        <path d="M11.0684 14.6665L10.6563 15.9346L11.2904 16.1406L11.0684 14.6665Z" fill="#FFCC00" />
        <path d="M9.80469 15.5879H11.138V16.2546L9.80469 15.5879Z" fill="#FFCC00" />
        <path d="M9.80469 15.5879L10.8834 16.3716L11.2752 15.8323L9.80469 15.5879Z" fill="#FFCC00" />
        <path d="M15.2676 18.5164H13.9342V19.183L15.2676 18.5164Z" fill="#FFCC00" />
        <path d="M15.2676 18.5164L14.1889 19.3001L13.797 18.7607L15.2676 18.5164Z" fill="#FFCC00" />
        <path d="M14.7871 20.0068L14.3751 18.7388L13.741 18.9448L14.7871 20.0068Z" fill="#FFCC00" />
        <path d="M14.7871 20.0068L13.7084 19.2231L14.1003 18.6838L14.7871 20.0068Z" fill="#FFCC00" />
        <path d="M13.2207 20.0076L14.2994 19.2239L13.9075 18.6845L13.2207 20.0076Z" fill="#FFCC00" />
        <path d="M13.2207 20.0076L13.6327 18.7395L14.2668 18.9455L13.2207 20.0076Z" fill="#FFCC00" />
        <path d="M13.9976 17.595L14.4096 18.8631L13.7755 19.0691L13.9976 17.595Z" fill="#FFCC00" />
        <path d="M13.9976 17.595L13.5855 18.8631L14.2196 19.0691L13.9976 17.595Z" fill="#FFCC00" />
        <path d="M12.7363 18.5164H14.0697V19.183L12.7363 18.5164Z" fill="#FFCC00" />
        <path d="M12.7363 18.5164L13.815 19.3001L14.2069 18.7607L12.7363 18.5164Z" fill="#FFCC00" />
        <path d="M26 10.6669L26.412 11.935L25.778 12.141L26 10.6669Z" fill="#FFCC00" />
        <path d="M26 10.6669L25.588 11.935L26.222 12.141L26 10.6669Z" fill="#FFCC00" />
        <path d="M24.7368 11.5883H26.0701V12.255L24.7368 11.5883Z" fill="#FFCC00" />
        <path d="M24.7368 11.5883L25.8155 12.372L26.2074 11.8327L24.7368 11.5883Z" fill="#FFCC00" />
        <path d="M25.2212 13.0786L25.6332 11.8106L26.2673 12.0166L25.2212 13.0786Z" fill="#FFCC00" />
        <path d="M25.2212 13.0786L26.2999 12.2949L25.908 11.7556L25.2212 13.0786Z" fill="#FFCC00" />
        <path d="M27.2656 11.5883H25.9323V12.255L27.2656 11.5883Z" fill="#FFCC00" />
        <path d="M27.2656 11.5883L26.1869 12.372L25.7951 11.8327L27.2656 11.5883Z" fill="#FFCC00" />
        <path d="M26.7812 13.0786L26.3692 11.8106L25.7352 12.0166L26.7812 13.0786Z" fill="#FFCC00" />
        <path d="M26.7812 13.0786L25.7026 12.2949L26.0944 11.7556L26.7812 13.0786Z" fill="#FFCC00" />
        <path d="M22.7896 6.15087L21.7109 5.36716L22.1027 4.82781L22.7896 6.15087Z" fill="#FFCC00" />
        <path d="M22.7896 6.15087L22.3775 4.8828L21.7435 5.08881L22.7896 6.15087Z" fill="#FFCC00" />
        <path d="M23.2715 4.66039L22.1928 5.44411L21.8009 4.90476L23.2715 4.66039Z" fill="#FFCC00" />
        <path d="M23.2715 4.66039H21.9382V5.32706L23.2715 4.66039Z" fill="#FFCC00" />
        <path d="M22.002 3.73901L22.414 5.00708L21.7799 5.21309L22.002 3.73901Z" fill="#FFCC00" />
        <path d="M22.002 3.73901L21.5899 5.00708L22.224 5.21309L22.002 3.73901Z" fill="#FFCC00" />
        <path d="M21.2148 6.15112L22.2935 5.3674L21.9017 4.82806L21.2148 6.15112Z" fill="#FFCC00" />
        <path d="M21.2148 6.15112L21.6269 4.88304L22.2609 5.08905L21.2148 6.15112Z" fill="#FFCC00" />
        <path d="M20.7305 4.66039L21.8092 5.44411L22.201 4.90476L20.7305 4.66039Z" fill="#FFCC00" />
        <path d="M20.7305 4.66039H22.0638V5.32706L20.7305 4.66039Z" fill="#FFCC00" />
        <path d="M24.1509 9.07764L24.5629 7.80956L25.1969 8.01557L24.1509 9.07764Z" fill="#FFCC00" />
        <path d="M24.1509 9.07764L25.2296 8.29392L24.8377 7.75458L24.1509 9.07764Z" fill="#FFCC00" />
        <path d="M25.7173 9.07881L24.6386 8.2951L25.0305 7.75575L25.7173 9.07881Z" fill="#FFCC00" />
        <path d="M25.7173 9.07881L25.3053 7.81074L24.6712 8.01675L25.7173 9.07881Z" fill="#FFCC00" />
        <path d="M26.2017 7.58733L25.123 8.37104L24.7311 7.8317L26.2017 7.58733Z" fill="#FFCC00" />
        <path d="M26.2017 7.58733H24.8683V8.25399L26.2017 7.58733Z" fill="#FFCC00" />
        <path d="M23.6621 7.58765L24.7408 8.37136L25.1327 7.83202L23.6621 7.58765Z" fill="#FFCC00" />
        <path d="M23.6621 7.58765H24.9954V8.25431L23.6621 7.58765Z" fill="#FFCC00" />
        <path d="M24.9316 6.66626L24.5196 7.93434L25.1537 8.14035L24.9316 6.66626Z" fill="#FFCC00" />
        <path d="M24.9316 6.66626L25.3437 7.93434L24.7096 8.14035L24.9316 6.66626Z" fill="#FFCC00" />
        <path d="M23.6646 15.5879H24.9979V16.2546L23.6646 15.5879Z" fill="#FFCC00" />
        <path d="M23.6646 15.5879L24.7432 16.3716L25.1351 15.8323L23.6646 15.5879Z" fill="#FFCC00" />
        <path d="M24.147 17.0779L24.559 15.8098L25.193 16.0158L24.147 17.0779Z" fill="#FFCC00" />
        <path d="M24.147 17.0779L25.2257 16.2942L24.8338 15.7548L24.147 17.0779Z" fill="#FFCC00" />
        <path d="M25.7153 17.0786L24.6366 16.2949L25.0285 15.7555L25.7153 17.0786Z" fill="#FFCC00" />
        <path d="M25.7153 17.0786L25.3033 15.8105L24.6693 16.0165L25.7153 17.0786Z" fill="#FFCC00" />
        <path d="M24.9321 14.6665L24.5201 15.9346L25.1541 16.1406L24.9321 14.6665Z" fill="#FFCC00" />
        <path d="M24.9321 14.6665L25.3442 15.9346L24.7101 16.1406L24.9321 14.6665Z" fill="#FFCC00" />
        <path d="M26.1958 15.5879H24.8625V16.2546L26.1958 15.5879Z" fill="#FFCC00" />
        <path d="M26.1958 15.5879L25.1171 16.3716L24.7253 15.8323L26.1958 15.5879Z" fill="#FFCC00" />
        <path d="M20.7363 18.5161H22.0697V19.1828L20.7363 18.5161Z" fill="#FFCC00" />
        <path d="M20.7363 18.5161L21.815 19.2998L22.2069 18.7605L20.7363 18.5161Z" fill="#FFCC00" />
        <path d="M21.2212 20.0066L21.6332 18.7385L22.2673 18.9445L21.2212 20.0066Z" fill="#FFCC00" />
        <path d="M21.2212 20.0066L22.2999 19.2229L21.908 18.6835L21.2212 20.0066Z" fill="#FFCC00" />
        <path d="M22.7896 20.0073L21.7109 19.2236L22.1027 18.6843L22.7896 20.0073Z" fill="#FFCC00" />
        <path d="M22.7896 20.0073L22.3775 18.7392L21.7435 18.9452L22.7896 20.0073Z" fill="#FFCC00" />
        <path d="M22.0063 17.5947L21.5943 18.8628L22.2284 19.0688L22.0063 17.5947Z" fill="#FFCC00" />
        <path d="M22.0063 17.5947L22.4184 18.8628L21.7843 19.0688L22.0063 17.5947Z" fill="#FFCC00" />
        <path d="M23.2676 18.5161H21.9342V19.1828L23.2676 18.5161Z" fill="#FFCC00" />
        <path d="M23.2676 18.5161L22.1889 19.2998L21.797 18.7605L23.2676 18.5161Z" fill="#FFCC00" />
    </g>
    <defs>
        <clipPath id="clip0_280_4953">
            <rect width="36" height="24" rx="4" fill="white" />
        </clipPath>
    </defs>
</svg>
    