<svg width="36" height="24" viewBox="0 0 36 24" fill="none" xmlns="http://www.w3.org/2000/svg">
    <g clip-path="url(#clip0_280_5176)">
        <path d="M0 0H45.6V24H0" fill="#B31942" />
        <path
            d="M0 2.76923H45.6H0ZM45.6 6.46153H0H45.6ZM0 10.1538H45.6H0ZM45.6 13.8461H0H45.6ZM0 17.5385H45.6H0ZM45.6 21.2308H0H45.6Z"
            fill="black" />
        <path
            d="M0 2.76923H45.6M45.6 6.46153H0M0 10.1538H45.6M45.6 13.8461H0M0 17.5385H45.6M45.6 21.2308H0"
            stroke="white" stroke-width="1.84615" />
        <path d="M0 0H18.24V12.9231H0" fill="#0A3161" />
        <path
            d="M1.52068 0.553223L1.95473 1.88911L0.818359 1.06349H2.223L1.08662 1.88911L1.52068 0.553223Z"
            fill="white" />
        <path
            d="M1.52068 3.13783L1.95473 4.47372L0.818359 3.6481H2.223L1.08662 4.47372L1.52068 3.13783Z"
            fill="white" />
        <path
            d="M1.52068 5.72246L1.95473 7.05835L0.818359 6.23272H2.223L1.08662 7.05835L1.52068 5.72246Z"
            fill="white" />
        <path
            d="M1.52068 8.30707L1.95473 9.64296L0.818359 8.81733H2.223L1.08662 9.64296L1.52068 8.30707Z"
            fill="white" />
        <path
            d="M1.52068 10.8918L1.95473 12.2277L0.818359 11.4021H2.223L1.08662 12.2277L1.52068 10.8918Z"
            fill="white" />
        <path
            d="M3.04021 1.84575L3.47427 3.18164L2.33789 2.35601H3.74253L2.60615 3.18164L3.04021 1.84575Z"
            fill="white" />
        <path
            d="M3.04021 4.43036L3.47427 5.76625L2.33789 4.94062H3.74253L2.60615 5.76625L3.04021 4.43036Z"
            fill="white" />
        <path
            d="M3.04021 7.01498L3.47427 8.35087L2.33789 7.52525H3.74253L2.60615 8.35087L3.04021 7.01498Z"
            fill="white" />
        <path
            d="M3.04021 9.59959L3.47427 10.9355L2.33789 10.1099H3.74253L2.60615 10.9355L3.04021 9.59959Z"
            fill="white" />
        <path
            d="M4.55974 0.553223L4.9938 1.88911L3.85742 1.06349H5.26206L4.12568 1.88911L4.55974 0.553223Z"
            fill="white" />
        <path
            d="M4.55974 3.13783L4.9938 4.47372L3.85742 3.6481H5.26206L4.12568 4.47372L4.55974 3.13783Z"
            fill="white" />
        <path
            d="M4.55974 5.72246L4.9938 7.05835L3.85742 6.23272H5.26206L4.12568 7.05835L4.55974 5.72246Z"
            fill="white" />
        <path
            d="M4.55974 8.30707L4.9938 9.64296L3.85742 8.81733H5.26206L4.12568 9.64296L4.55974 8.30707Z"
            fill="white" />
        <path
            d="M4.55974 10.8918L4.9938 12.2277L3.85742 11.4021H5.26206L4.12568 12.2277L4.55974 10.8918Z"
            fill="white" />
        <path
            d="M6.07927 1.8457L6.51333 3.18159L5.37695 2.35597H6.78159L5.64522 3.18159L6.07927 1.8457Z"
            fill="white" />
        <path
            d="M6.07927 4.43031L6.51333 5.7662L5.37695 4.94058H6.78159L5.64522 5.7662L6.07927 4.43031Z"
            fill="white" />
        <path
            d="M6.07927 7.01494L6.51333 8.35083L5.37695 7.5252H6.78159L5.64522 8.35083L6.07927 7.01494Z"
            fill="white" />
        <path
            d="M6.07927 9.59955L6.51333 10.9354L5.37695 10.1098H6.78159L5.64522 10.9354L6.07927 9.59955Z"
            fill="white" />
        <path
            d="M7.60076 0.553711L8.03481 1.8896L6.89844 1.06398H8.30307L7.1667 1.8896L7.60076 0.553711Z"
            fill="white" />
        <path
            d="M7.60076 3.13832L8.03481 4.47421L6.89844 3.64859H8.30307L7.1667 4.47421L7.60076 3.13832Z"
            fill="white" />
        <path
            d="M7.60076 5.72295L8.03481 7.05884L6.89844 6.23321H8.30307L7.1667 7.05884L7.60076 5.72295Z"
            fill="white" />
        <path
            d="M7.60076 8.30756L8.03481 9.64345L6.89844 8.81782H8.30307L7.1667 9.64345L7.60076 8.30756Z"
            fill="white" />
        <path
            d="M7.60076 10.8922L8.03481 12.2281L6.89844 11.4024H8.30307L7.1667 12.2281L7.60076 10.8922Z"
            fill="white" />
        <path
            d="M9.12224 1.84595L9.5563 3.18184L8.41992 2.35621H9.82456L8.68818 3.18184L9.12224 1.84595Z"
            fill="white" />
        <path
            d="M9.12224 4.43056L9.5563 5.76645L8.41992 4.94082H9.82456L8.68818 5.76645L9.12224 4.43056Z"
            fill="white" />
        <path
            d="M9.12224 7.01518L9.5563 8.35107L8.41992 7.52545H9.82456L8.68818 8.35107L9.12224 7.01518Z"
            fill="white" />
        <path
            d="M9.12224 9.59979L9.5563 10.9357L8.41992 10.1101H9.82456L8.68818 10.9357L9.12224 9.59979Z"
            fill="white" />
        <path
            d="M10.6398 0.553711L11.0739 1.8896L9.9375 1.06398H11.3421L10.2058 1.8896L10.6398 0.553711Z"
            fill="white" />
        <path
            d="M10.6398 3.13832L11.0739 4.47421L9.9375 3.64859H11.3421L10.2058 4.47421L10.6398 3.13832Z"
            fill="white" />
        <path
            d="M10.6398 5.72295L11.0739 7.05884L9.9375 6.23321H11.3421L10.2058 7.05884L10.6398 5.72295Z"
            fill="white" />
        <path
            d="M10.6398 8.30756L11.0739 9.64345L9.9375 8.81782H11.3421L10.2058 9.64345L10.6398 8.30756Z"
            fill="white" />
        <path
            d="M10.6398 10.8922L11.0739 12.2281L9.9375 11.4024H11.3421L10.2058 12.2281L10.6398 10.8922Z"
            fill="white" />
        <path
            d="M12.1613 1.84595L12.5954 3.18184L11.459 2.35621H12.8636L11.7272 3.18184L12.1613 1.84595Z"
            fill="white" />
        <path
            d="M12.1613 4.43056L12.5954 5.76645L11.459 4.94082H12.8636L11.7272 5.76645L12.1613 4.43056Z"
            fill="white" />
        <path
            d="M12.1613 7.01518L12.5954 8.35107L11.459 7.52545H12.8636L11.7272 8.35107L12.1613 7.01518Z"
            fill="white" />
        <path
            d="M12.1613 9.59979L12.5954 10.9357L11.459 10.1101H12.8636L11.7272 10.9357L12.1613 9.59979Z"
            fill="white" />
        <path
            d="M13.6789 0.553711L14.1129 1.8896L12.9766 1.06398H14.3812L13.2448 1.8896L13.6789 0.553711Z"
            fill="white" />
        <path
            d="M13.6789 3.13832L14.1129 4.47421L12.9766 3.64859H14.3812L13.2448 4.47421L13.6789 3.13832Z"
            fill="white" />
        <path
            d="M13.6789 5.72295L14.1129 7.05884L12.9766 6.23321H14.3812L13.2448 7.05884L13.6789 5.72295Z"
            fill="white" />
        <path
            d="M13.6789 8.30756L14.1129 9.64345L12.9766 8.81782H14.3812L13.2448 9.64345L13.6789 8.30756Z"
            fill="white" />
        <path
            d="M13.6789 10.8922L14.1129 12.2281L12.9766 11.4024H14.3812L13.2448 12.2281L13.6789 10.8922Z"
            fill="white" />
        <path
            d="M15.2004 1.84595L15.6344 3.18184L14.498 2.35621H15.9027L14.7663 3.18184L15.2004 1.84595Z"
            fill="white" />
        <path
            d="M15.2004 4.43056L15.6344 5.76645L14.498 4.94082H15.9027L14.7663 5.76645L15.2004 4.43056Z"
            fill="white" />
        <path
            d="M15.2004 7.01518L15.6344 8.35107L14.498 7.52545H15.9027L14.7663 8.35107L15.2004 7.01518Z"
            fill="white" />
        <path
            d="M15.2004 9.59979L15.6344 10.9357L14.498 10.1101H15.9027L14.7663 10.9357L15.2004 9.59979Z"
            fill="white" />
        <path
            d="M16.7199 0.553665L17.154 1.88955L16.0176 1.06393H17.4222L16.2858 1.88955L16.7199 0.553665Z"
            fill="white" />
        <path
            d="M16.7199 3.13828L17.154 4.47416L16.0176 3.64854H17.4222L16.2858 4.47416L16.7199 3.13828Z"
            fill="white" />
        <path
            d="M16.7199 5.7229L17.154 7.05879L16.0176 6.23316H17.4222L16.2858 7.05879L16.7199 5.7229Z"
            fill="white" />
        <path
            d="M16.7199 8.30751L17.154 9.6434L16.0176 8.81777H17.4222L16.2858 9.6434L16.7199 8.30751Z"
            fill="white" />
        <path
            d="M16.7199 10.8921L17.154 12.228L16.0176 11.4024H17.4222L16.2858 12.228L16.7199 10.8921Z"
            fill="white" />
    </g>
    <defs>
        <clipPath id="clip0_280_5176">
            <rect width="36" height="24" rx="4" fill="white" />
        </clipPath>
    </defs>
</svg>
    