<svg width="156" height="13" viewBox="0 0 156 13" fill="none" xmlns="http://www.w3.org/2000/svg">
    <path
        d="M0.0311612 10V0.545454H6.08798V1.98118H1.74387V4.54794H5.6725V5.98366H1.74387V10H0.0311612ZM7.47292 10V2.90909H9.09331V4.09091H9.16717C9.29643 3.68158 9.51802 3.36612 9.83194 3.14453C10.1489 2.91986 10.5106 2.80753 10.9168 2.80753C11.0091 2.80753 11.1122 2.81214 11.2261 2.82138C11.3431 2.82753 11.44 2.8383 11.517 2.85369V4.39098C11.4462 4.36636 11.3338 4.34482 11.18 4.32635C11.0291 4.30481 10.883 4.29403 10.7414 4.29403C10.4367 4.29403 10.1628 4.3602 9.91966 4.49254C9.6796 4.6218 9.49032 4.80185 9.35183 5.03267C9.21333 5.26349 9.14409 5.52971 9.14409 5.83132V10H7.47292ZM15.4744 10.1385C14.7635 10.1385 14.1495 9.99077 13.6325 9.69531C13.1185 9.39678 12.723 8.97514 12.446 8.4304C12.169 7.88258 12.0305 7.23781 12.0305 6.49609C12.0305 5.76669 12.169 5.12654 12.446 4.57564C12.7261 4.02166 13.117 3.59079 13.6186 3.28303C14.1203 2.97218 14.7096 2.81676 15.3867 2.81676C15.8237 2.81676 16.2362 2.88755 16.6239 3.02912C17.0148 3.16761 17.3595 3.38305 17.658 3.67543C17.9596 3.9678 18.1966 4.3402 18.369 4.79261C18.5413 5.24195 18.6275 5.77746 18.6275 6.39915V6.91158H12.8153V5.78516H17.0256C17.0225 5.46508 16.9532 5.1804 16.8178 4.93111C16.6824 4.67874 16.4931 4.48023 16.25 4.33558C16.0099 4.19093 15.7299 4.11861 15.4098 4.11861C15.0682 4.11861 14.7681 4.2017 14.5096 4.3679C14.2511 4.53101 14.0495 4.74645 13.9048 5.0142C13.7633 5.27888 13.6909 5.56972 13.6879 5.88672V6.87003C13.6879 7.28243 13.7633 7.63636 13.9141 7.93182C14.0649 8.22419 14.2757 8.44886 14.5465 8.60582C14.8174 8.75971 15.1344 8.83665 15.4975 8.83665C15.7406 8.83665 15.9607 8.80279 16.1577 8.73509C16.3546 8.6643 16.5254 8.5612 16.6701 8.42578C16.8147 8.29036 16.924 8.12263 16.9979 7.92259L18.5582 8.09801C18.4598 8.51042 18.272 8.8705 17.995 9.17827C17.7211 9.48295 17.3703 9.71993 16.9425 9.8892C16.5147 10.0554 16.0253 10.1385 15.4744 10.1385ZM23.1805 10.1385C22.4695 10.1385 21.8556 9.99077 21.3385 9.69531C20.8245 9.39678 20.4291 8.97514 20.1521 8.4304C19.8751 7.88258 19.7366 7.23781 19.7366 6.49609C19.7366 5.76669 19.8751 5.12654 20.1521 4.57564C20.4321 4.02166 20.823 3.59079 21.3247 3.28303C21.8263 2.97218 22.4157 2.81676 23.0928 2.81676C23.5298 2.81676 23.9422 2.88755 24.33 3.02912C24.7209 3.16761 25.0655 3.38305 25.3641 3.67543C25.6657 3.9678 25.9027 4.3402 26.075 4.79261C26.2474 5.24195 26.3335 5.77746 26.3335 6.39915V6.91158H20.5214V5.78516H24.7316C24.7285 5.46508 24.6593 5.1804 24.5239 4.93111C24.3885 4.67874 24.1992 4.48023 23.9561 4.33558C23.716 4.19093 23.4359 4.11861 23.1159 4.11861C22.7742 4.11861 22.4742 4.2017 22.2156 4.3679C21.9571 4.53101 21.7555 4.74645 21.6109 5.0142C21.4693 5.27888 21.397 5.56972 21.3939 5.88672V6.87003C21.3939 7.28243 21.4693 7.63636 21.6201 7.93182C21.7709 8.22419 21.9817 8.44886 22.2526 8.60582C22.5234 8.75971 22.8404 8.83665 23.2036 8.83665C23.4467 8.83665 23.6668 8.80279 23.8637 8.73509C24.0607 8.6643 24.2315 8.5612 24.3762 8.42578C24.5208 8.29036 24.6301 8.12263 24.7039 7.92259L26.2643 8.09801C26.1658 8.51042 25.9781 8.8705 25.7011 9.17827C25.4272 9.48295 25.0763 9.71993 24.6485 9.8892C24.2207 10.0554 23.7314 10.1385 23.1805 10.1385ZM33.0355 10L30.3672 0.545454H32.2092L33.9126 7.49325H34.0004L35.8192 0.545454H37.495L39.3185 7.49787H39.4016L41.1051 0.545454H42.9471L40.2788 10H38.5891L36.6964 3.36612H36.6225L34.7251 10H33.0355ZM46.4302 10.1385C45.7377 10.1385 45.1376 9.98615 44.6298 9.68146C44.122 9.37678 43.728 8.95052 43.448 8.4027C43.171 7.85488 43.0325 7.21473 43.0325 6.48224C43.0325 5.74976 43.171 5.10807 43.448 4.55717C43.728 4.00627 44.122 3.57848 44.6298 3.27379C45.1376 2.96911 45.7377 2.81676 46.4302 2.81676C47.1227 2.81676 47.7228 2.96911 48.2306 3.27379C48.7385 3.57848 49.1309 4.00627 49.4078 4.55717C49.6879 5.10807 49.8279 5.74976 49.8279 6.48224C49.8279 7.21473 49.6879 7.85488 49.4078 8.4027C49.1309 8.95052 48.7385 9.37678 48.2306 9.68146C47.7228 9.98615 47.1227 10.1385 46.4302 10.1385ZM46.4395 8.79972C46.8149 8.79972 47.1288 8.69661 47.3812 8.49041C47.6336 8.28113 47.8213 8.00107 47.9444 7.65021C48.0706 7.29936 48.1337 6.9085 48.1337 6.47763C48.1337 6.04368 48.0706 5.65128 47.9444 5.30043C47.8213 4.9465 47.6336 4.66489 47.3812 4.45561C47.1288 4.24633 46.8149 4.14169 46.4395 4.14169C46.0547 4.14169 45.7347 4.24633 45.4792 4.45561C45.2269 4.66489 45.0376 4.9465 44.9114 5.30043C44.7883 5.65128 44.7267 6.04368 44.7267 6.47763C44.7267 6.9085 44.7883 7.29936 44.9114 7.65021C45.0376 8.00107 45.2269 8.28113 45.4792 8.49041C45.7347 8.69661 46.0547 8.79972 46.4395 8.79972ZM51.2464 10V2.90909H52.8667V4.09091H52.9406C53.0699 3.68158 53.2915 3.36612 53.6054 3.14453C53.9224 2.91986 54.284 2.80753 54.6903 2.80753C54.7826 2.80753 54.8857 2.81214 54.9996 2.82138C55.1165 2.82753 55.2135 2.8383 55.2904 2.85369V4.39098C55.2196 4.36636 55.1073 4.34482 54.9534 4.32635C54.8026 4.30481 54.6564 4.29403 54.5148 4.29403C54.2101 4.29403 53.9362 4.3602 53.6931 4.49254C53.453 4.6218 53.2638 4.80185 53.1253 5.03267C52.9868 5.26349 52.9175 5.52971 52.9175 5.83132V10H51.2464ZM58.0718 0.545454V10H56.4007V0.545454H58.0718ZM62.4217 10.1246C61.8646 10.1246 61.3661 9.98153 60.926 9.69531C60.4859 9.40909 60.1381 8.99361 59.8826 8.44886C59.6272 7.90412 59.4995 7.24242 59.4995 6.46378C59.4995 5.6759 59.6287 5.01113 59.8873 4.46946C60.1489 3.92472 60.5012 3.51385 60.9444 3.23686C61.3876 2.95679 61.8816 2.81676 62.4263 2.81676C62.8418 2.81676 63.1834 2.88755 63.4512 3.02912C63.7189 3.16761 63.9313 3.33535 64.0882 3.53232C64.2452 3.72621 64.3668 3.90933 64.4529 4.08168H64.5222V0.545454H66.198V10H64.5545V8.88281H64.4529C64.3668 9.05516 64.2421 9.23828 64.079 9.43217C63.9159 9.62299 63.7005 9.7861 63.4327 9.92152C63.165 10.0569 62.8279 10.1246 62.4217 10.1246ZM62.888 8.75355C63.2419 8.75355 63.5435 8.65814 63.7928 8.46733C64.0421 8.27344 64.2314 8.00414 64.3606 7.65945C64.4899 7.31475 64.5545 6.91312 64.5545 6.45455C64.5545 5.99598 64.4899 5.59742 64.3606 5.25888C64.2344 4.92034 64.0467 4.6572 63.7974 4.46946C63.5512 4.28172 63.248 4.18785 62.888 4.18785C62.5156 4.18785 62.2047 4.2848 61.9554 4.47869C61.7061 4.67259 61.5184 4.94034 61.3922 5.28196C61.266 5.62358 61.2029 6.01444 61.2029 6.45455C61.2029 6.89773 61.266 7.29321 61.3922 7.64098C61.5215 7.98568 61.7108 8.25805 61.96 8.4581C62.2124 8.65507 62.5217 8.75355 62.888 8.75355ZM69.4422 10L67.4387 2.90909H69.1421L70.3886 7.89489H70.4532L71.7274 2.90909H73.4124L74.6865 7.86719H74.7558L75.9838 2.90909H77.6919L75.6837 10H73.9433L72.6137 5.2081H72.5168L71.1872 10H69.4422ZM78.8587 10V2.90909H80.5298V10H78.8587ZM79.6989 1.9027C79.4342 1.9027 79.2064 1.81499 79.0156 1.63956C78.8248 1.46106 78.7294 1.24716 78.7294 0.997869C78.7294 0.745502 78.8248 0.531605 79.0156 0.356178C79.2064 0.177675 79.4342 0.088423 79.6989 0.088423C79.9666 0.088423 80.1944 0.177675 80.3821 0.356178C80.5729 0.531605 80.6683 0.745502 80.6683 0.997869C80.6683 1.24716 80.5729 1.46106 80.3821 1.63956C80.1944 1.81499 79.9666 1.9027 79.6989 1.9027ZM84.8797 10.1246C84.3227 10.1246 83.8241 9.98153 83.384 9.69531C82.9439 9.40909 82.5961 8.99361 82.3406 8.44886C82.0852 7.90412 81.9575 7.24242 81.9575 6.46378C81.9575 5.6759 82.0867 5.01113 82.3453 4.46946C82.6069 3.92472 82.9593 3.51385 83.4024 3.23686C83.8456 2.95679 84.3396 2.81676 84.8843 2.81676C85.2998 2.81676 85.6414 2.88755 85.9092 3.02912C86.1769 3.16761 86.3893 3.33535 86.5463 3.53232C86.7032 3.72621 86.8248 3.90933 86.911 4.08168H86.9802V0.545454H88.656V10H87.0125V8.88281H86.911C86.8248 9.05516 86.7001 9.23828 86.537 9.43217C86.3739 9.62299 86.1585 9.7861 85.8907 9.92152C85.623 10.0569 85.286 10.1246 84.8797 10.1246ZM85.346 8.75355C85.6999 8.75355 86.0015 8.65814 86.2508 8.46733C86.5001 8.27344 86.6894 8.00414 86.8186 7.65945C86.9479 7.31475 87.0125 6.91312 87.0125 6.45455C87.0125 5.99598 86.9479 5.59742 86.8186 5.25888C86.6924 4.92034 86.5047 4.6572 86.2554 4.46946C86.0092 4.28172 85.7061 4.18785 85.346 4.18785C84.9736 4.18785 84.6627 4.2848 84.4134 4.47869C84.1642 4.67259 83.9764 4.94034 83.8502 5.28196C83.724 5.62358 83.661 6.01444 83.661 6.45455C83.661 6.89773 83.724 7.29321 83.8502 7.64098C83.9795 7.98568 84.1688 8.25805 84.4181 8.4581C84.6704 8.65507 84.9797 8.75355 85.346 8.75355ZM93.576 10.1385C92.8651 10.1385 92.2511 9.99077 91.734 9.69531C91.2201 9.39678 90.8246 8.97514 90.5476 8.4304C90.2706 7.88258 90.1321 7.23781 90.1321 6.49609C90.1321 5.76669 90.2706 5.12654 90.5476 4.57564C90.8277 4.02166 91.2185 3.59079 91.7202 3.28303C92.2218 2.97218 92.8112 2.81676 93.4883 2.81676C93.9253 2.81676 94.3377 2.88755 94.7255 3.02912C95.1164 3.16761 95.4611 3.38305 95.7596 3.67543C96.0612 3.9678 96.2982 4.3402 96.4705 4.79261C96.6429 5.24195 96.729 5.77746 96.729 6.39915V6.91158H90.9169V5.78516H95.1271C95.1241 5.46508 95.0548 5.1804 94.9194 4.93111C94.784 4.67874 94.5947 4.48023 94.3516 4.33558C94.1115 4.19093 93.8314 4.11861 93.5114 4.11861C93.1697 4.11861 92.8697 4.2017 92.6112 4.3679C92.3526 4.53101 92.151 4.74645 92.0064 5.0142C91.8648 5.27888 91.7925 5.56972 91.7894 5.88672V6.87003C91.7894 7.28243 91.8648 7.63636 92.0156 7.93182C92.1664 8.22419 92.3772 8.44886 92.6481 8.60582C92.9189 8.75971 93.2359 8.83665 93.5991 8.83665C93.8422 8.83665 94.0623 8.80279 94.2592 8.73509C94.4562 8.6643 94.627 8.5612 94.7717 8.42578C94.9163 8.29036 95.0256 8.12263 95.0994 7.92259L96.6598 8.09801C96.5613 8.51042 96.3736 8.8705 96.0966 9.17827C95.8227 9.48295 95.4718 9.71993 95.044 9.8892C94.6162 10.0554 94.1269 10.1385 93.576 10.1385ZM106.579 3.14453C106.536 2.74136 106.355 2.42744 106.035 2.20277C105.718 1.9781 105.305 1.86577 104.797 1.86577C104.44 1.86577 104.134 1.91963 103.879 2.02734C103.623 2.13506 103.428 2.28125 103.293 2.46591C103.157 2.65057 103.088 2.86139 103.085 3.09837C103.085 3.29534 103.129 3.46615 103.219 3.6108C103.311 3.75544 103.436 3.87855 103.593 3.98011C103.75 4.0786 103.923 4.16169 104.114 4.2294C104.305 4.29711 104.497 4.35405 104.691 4.40021L105.578 4.6218C105.935 4.7049 106.278 4.81723 106.607 4.95881C106.94 5.10038 107.237 5.27888 107.498 5.49432C107.763 5.70975 107.972 5.96982 108.126 6.2745C108.28 6.57919 108.357 6.9362 108.357 7.34553C108.357 7.8995 108.215 8.38731 107.932 8.80895C107.649 9.22751 107.24 9.55528 106.704 9.79226C106.172 10.0262 105.527 10.1431 104.77 10.1431C104.034 10.1431 103.396 10.0292 102.854 9.80149C102.315 9.57375 101.894 9.24136 101.589 8.80433C101.287 8.36731 101.124 7.83487 101.1 7.20703H102.785C102.809 7.53634 102.911 7.81025 103.089 8.02876C103.268 8.24728 103.5 8.41039 103.786 8.51811C104.076 8.62583 104.399 8.67969 104.756 8.67969C105.128 8.67969 105.455 8.62429 105.735 8.51349C106.018 8.39962 106.239 8.24266 106.399 8.04261C106.559 7.83949 106.641 7.60251 106.644 7.33168C106.641 7.08546 106.569 6.88234 106.427 6.7223C106.286 6.55919 106.087 6.42377 105.832 6.31605C105.579 6.20526 105.284 6.10677 104.945 6.0206L103.87 5.74361C103.091 5.54356 102.475 5.24041 102.023 4.83416C101.574 4.42483 101.349 3.88163 101.349 3.20454C101.349 2.64749 101.5 2.15968 101.801 1.74112C102.106 1.32256 102.52 0.997869 103.043 0.767045C103.566 0.533144 104.159 0.416193 104.821 0.416193C105.492 0.416193 106.079 0.533144 106.584 0.767045C107.092 0.997869 107.49 1.31948 107.78 1.73189C108.069 2.14122 108.218 2.6121 108.228 3.14453H106.579ZM111.481 5.84517V10H109.81V0.545454H111.444V4.11399H111.527C111.693 3.7139 111.95 3.39844 112.298 3.16761C112.649 2.93371 113.095 2.81676 113.637 2.81676C114.129 2.81676 114.559 2.91986 114.925 3.12606C115.291 3.33227 115.574 3.63388 115.774 4.03089C115.977 4.42791 116.079 4.91264 116.079 5.48508V10H114.408V5.74361C114.408 5.26657 114.285 4.89571 114.039 4.63104C113.795 4.36328 113.454 4.2294 113.014 4.2294C112.718 4.2294 112.454 4.29403 112.22 4.4233C111.989 4.54948 111.807 4.7326 111.675 4.97266C111.546 5.21271 111.481 5.50355 111.481 5.84517ZM117.782 10V2.90909H119.454V10H117.782ZM118.623 1.9027C118.358 1.9027 118.13 1.81499 117.939 1.63956C117.749 1.46106 117.653 1.24716 117.653 0.997869C117.653 0.745502 117.749 0.531605 117.939 0.356178C118.13 0.177675 118.358 0.088423 118.623 0.088423C118.89 0.088423 119.118 0.177675 119.306 0.356178C119.497 0.531605 119.592 0.745502 119.592 0.997869C119.592 1.24716 119.497 1.46106 119.306 1.63956C119.118 1.81499 118.89 1.9027 118.623 1.9027ZM121.172 12.6591V2.90909H122.816V4.08168H122.913C122.999 3.90933 123.12 3.72621 123.277 3.53232C123.434 3.33535 123.647 3.16761 123.914 3.02912C124.182 2.88755 124.524 2.81676 124.939 2.81676C125.487 2.81676 125.981 2.95679 126.421 3.23686C126.864 3.51385 127.215 3.92472 127.474 4.46946C127.735 5.01113 127.866 5.6759 127.866 6.46378C127.866 7.24242 127.738 7.90412 127.483 8.44886C127.227 8.99361 126.88 9.40909 126.44 9.69531C125.999 9.98153 125.501 10.1246 124.944 10.1246C124.538 10.1246 124.201 10.0569 123.933 9.92152C123.665 9.7861 123.45 9.62299 123.286 9.43217C123.126 9.23828 123.002 9.05516 122.913 8.88281H122.843V12.6591H121.172ZM122.811 6.45455C122.811 6.91312 122.876 7.31475 123.005 7.65945C123.137 8.00414 123.326 8.27344 123.573 8.46733C123.822 8.65814 124.124 8.75355 124.478 8.75355C124.847 8.75355 125.156 8.65507 125.405 8.4581C125.655 8.25805 125.842 7.98568 125.969 7.64098C126.098 7.29321 126.163 6.89773 126.163 6.45455C126.163 6.01444 126.099 5.62358 125.973 5.28196C125.847 4.94034 125.659 4.67259 125.41 4.47869C125.161 4.2848 124.85 4.18785 124.478 4.18785C124.121 4.18785 123.817 4.28172 123.568 4.46946C123.319 4.6572 123.13 4.92034 123 5.25888C122.874 5.59742 122.811 5.99598 122.811 6.45455ZM129.297 12.6591V2.90909H130.941V4.08168H131.038C131.124 3.90933 131.245 3.72621 131.402 3.53232C131.559 3.33535 131.772 3.16761 132.039 3.02912C132.307 2.88755 132.649 2.81676 133.064 2.81676C133.612 2.81676 134.106 2.95679 134.546 3.23686C134.989 3.51385 135.34 3.92472 135.599 4.46946C135.86 5.01113 135.991 5.6759 135.991 6.46378C135.991 7.24242 135.863 7.90412 135.608 8.44886C135.352 8.99361 135.005 9.40909 134.565 9.69531C134.124 9.98153 133.626 10.1246 133.069 10.1246C132.663 10.1246 132.326 10.0569 132.058 9.92152C131.79 9.7861 131.575 9.62299 131.411 9.43217C131.251 9.23828 131.127 9.05516 131.038 8.88281H130.968V12.6591H129.297ZM130.936 6.45455C130.936 6.91312 131.001 7.31475 131.13 7.65945C131.262 8.00414 131.451 8.27344 131.698 8.46733C131.947 8.65814 132.249 8.75355 132.603 8.75355C132.972 8.75355 133.281 8.65507 133.53 8.4581C133.78 8.25805 133.967 7.98568 134.094 7.64098C134.223 7.29321 134.288 6.89773 134.288 6.45455C134.288 6.01444 134.224 5.62358 134.098 5.28196C133.972 4.94034 133.784 4.67259 133.535 4.47869C133.286 4.2848 132.975 4.18785 132.603 4.18785C132.246 4.18785 131.942 4.28172 131.693 4.46946C131.444 4.6572 131.255 4.92034 131.125 5.25888C130.999 5.59742 130.936 5.99598 130.936 6.45455ZM137.422 10V2.90909H139.093V10H137.422ZM138.262 1.9027C137.998 1.9027 137.77 1.81499 137.579 1.63956C137.388 1.46106 137.293 1.24716 137.293 0.997869C137.293 0.745502 137.388 0.531605 137.579 0.356178C137.77 0.177675 137.998 0.088423 138.262 0.088423C138.53 0.088423 138.758 0.177675 138.946 0.356178C139.136 0.531605 139.232 0.745502 139.232 0.997869C139.232 1.24716 139.136 1.46106 138.946 1.63956C138.758 1.81499 138.53 1.9027 138.262 1.9027ZM142.483 5.84517V10H140.812V2.90909H142.409V4.11399H142.492C142.655 3.71697 142.915 3.40151 143.272 3.16761C143.632 2.93371 144.077 2.81676 144.607 2.81676C145.096 2.81676 145.522 2.9214 145.885 3.13068C146.252 3.33996 146.535 3.64311 146.735 4.04013C146.938 4.43714 147.038 4.9188 147.035 5.48508V10H145.364V5.74361C145.364 5.26965 145.241 4.89879 144.994 4.63104C144.751 4.36328 144.414 4.2294 143.983 4.2294C143.691 4.2294 143.431 4.29403 143.203 4.4233C142.978 4.54948 142.801 4.7326 142.672 4.97266C142.546 5.21271 142.483 5.50355 142.483 5.84517ZM151.817 12.8068C151.217 12.8068 150.702 12.7253 150.271 12.5621C149.84 12.4021 149.494 12.1867 149.232 11.9158C148.971 11.645 148.789 11.3449 148.688 11.0156L150.192 10.6509C150.26 10.7894 150.359 10.9264 150.488 11.0618C150.617 11.2003 150.791 11.3142 151.01 11.4034C151.231 11.4957 151.51 11.5419 151.845 11.5419C152.319 11.5419 152.712 11.4265 153.022 11.1957C153.333 10.9679 153.489 10.5924 153.489 10.0692V8.72585H153.406C153.319 8.8982 153.193 9.07517 153.027 9.25675C152.864 9.43833 152.647 9.59067 152.376 9.71378C152.108 9.83688 151.771 9.89844 151.365 9.89844C150.82 9.89844 150.326 9.77071 149.883 9.51527C149.443 9.25675 149.092 8.87204 148.831 8.36115C148.572 7.84718 148.443 7.20395 148.443 6.43146C148.443 5.65282 148.572 4.99574 148.831 4.46023C149.092 3.92164 149.445 3.51385 149.888 3.23686C150.331 2.95679 150.825 2.81676 151.37 2.81676C151.785 2.81676 152.127 2.88755 152.395 3.02912C152.665 3.16761 152.881 3.33535 153.041 3.53232C153.201 3.72621 153.322 3.90933 153.406 4.08168H153.498V2.90909H155.146V10.1154C155.146 10.7217 155.001 11.2234 154.712 11.6204C154.423 12.0174 154.027 12.3144 153.526 12.5114C153.024 12.7083 152.455 12.8068 151.817 12.8068ZM151.831 8.58736C152.185 8.58736 152.487 8.50118 152.736 8.32884C152.985 8.15649 153.175 7.90874 153.304 7.58558C153.433 7.26243 153.498 6.87464 153.498 6.42223C153.498 5.97597 153.433 5.58511 153.304 5.24964C153.178 4.91418 152.99 4.65412 152.741 4.46946C152.495 4.28172 152.191 4.18785 151.831 4.18785C151.459 4.18785 151.148 4.2848 150.899 4.47869C150.65 4.67259 150.462 4.9388 150.336 5.27734C150.209 5.61281 150.146 5.99444 150.146 6.42223C150.146 6.85618 150.209 7.23627 150.336 7.5625C150.465 7.88565 150.654 8.13802 150.903 8.3196C151.156 8.49811 151.465 8.58736 151.831 8.58736Z"
        fill="white" />
    <path
        d="M0.0311612 10V0.545454H6.08798V1.98118H1.74387V4.54794H5.6725V5.98366H1.74387V10H0.0311612ZM7.47292 10V2.90909H9.09331V4.09091H9.16717C9.29643 3.68158 9.51802 3.36612 9.83194 3.14453C10.1489 2.91986 10.5106 2.80753 10.9168 2.80753C11.0091 2.80753 11.1122 2.81214 11.2261 2.82138C11.3431 2.82753 11.44 2.8383 11.517 2.85369V4.39098C11.4462 4.36636 11.3338 4.34482 11.18 4.32635C11.0291 4.30481 10.883 4.29403 10.7414 4.29403C10.4367 4.29403 10.1628 4.3602 9.91966 4.49254C9.6796 4.6218 9.49032 4.80185 9.35183 5.03267C9.21333 5.26349 9.14409 5.52971 9.14409 5.83132V10H7.47292ZM15.4744 10.1385C14.7635 10.1385 14.1495 9.99077 13.6325 9.69531C13.1185 9.39678 12.723 8.97514 12.446 8.4304C12.169 7.88258 12.0305 7.23781 12.0305 6.49609C12.0305 5.76669 12.169 5.12654 12.446 4.57564C12.7261 4.02166 13.117 3.59079 13.6186 3.28303C14.1203 2.97218 14.7096 2.81676 15.3867 2.81676C15.8237 2.81676 16.2362 2.88755 16.6239 3.02912C17.0148 3.16761 17.3595 3.38305 17.658 3.67543C17.9596 3.9678 18.1966 4.3402 18.369 4.79261C18.5413 5.24195 18.6275 5.77746 18.6275 6.39915V6.91158H12.8153V5.78516H17.0256C17.0225 5.46508 16.9532 5.1804 16.8178 4.93111C16.6824 4.67874 16.4931 4.48023 16.25 4.33558C16.0099 4.19093 15.7299 4.11861 15.4098 4.11861C15.0682 4.11861 14.7681 4.2017 14.5096 4.3679C14.2511 4.53101 14.0495 4.74645 13.9048 5.0142C13.7633 5.27888 13.6909 5.56972 13.6879 5.88672V6.87003C13.6879 7.28243 13.7633 7.63636 13.9141 7.93182C14.0649 8.22419 14.2757 8.44886 14.5465 8.60582C14.8174 8.75971 15.1344 8.83665 15.4975 8.83665C15.7406 8.83665 15.9607 8.80279 16.1577 8.73509C16.3546 8.6643 16.5254 8.5612 16.6701 8.42578C16.8147 8.29036 16.924 8.12263 16.9979 7.92259L18.5582 8.09801C18.4598 8.51042 18.272 8.8705 17.995 9.17827C17.7211 9.48295 17.3703 9.71993 16.9425 9.8892C16.5147 10.0554 16.0253 10.1385 15.4744 10.1385ZM23.1805 10.1385C22.4695 10.1385 21.8556 9.99077 21.3385 9.69531C20.8245 9.39678 20.4291 8.97514 20.1521 8.4304C19.8751 7.88258 19.7366 7.23781 19.7366 6.49609C19.7366 5.76669 19.8751 5.12654 20.1521 4.57564C20.4321 4.02166 20.823 3.59079 21.3247 3.28303C21.8263 2.97218 22.4157 2.81676 23.0928 2.81676C23.5298 2.81676 23.9422 2.88755 24.33 3.02912C24.7209 3.16761 25.0655 3.38305 25.3641 3.67543C25.6657 3.9678 25.9027 4.3402 26.075 4.79261C26.2474 5.24195 26.3335 5.77746 26.3335 6.39915V6.91158H20.5214V5.78516H24.7316C24.7285 5.46508 24.6593 5.1804 24.5239 4.93111C24.3885 4.67874 24.1992 4.48023 23.9561 4.33558C23.716 4.19093 23.4359 4.11861 23.1159 4.11861C22.7742 4.11861 22.4742 4.2017 22.2156 4.3679C21.9571 4.53101 21.7555 4.74645 21.6109 5.0142C21.4693 5.27888 21.397 5.56972 21.3939 5.88672V6.87003C21.3939 7.28243 21.4693 7.63636 21.6201 7.93182C21.7709 8.22419 21.9817 8.44886 22.2526 8.60582C22.5234 8.75971 22.8404 8.83665 23.2036 8.83665C23.4467 8.83665 23.6668 8.80279 23.8637 8.73509C24.0607 8.6643 24.2315 8.5612 24.3762 8.42578C24.5208 8.29036 24.6301 8.12263 24.7039 7.92259L26.2643 8.09801C26.1658 8.51042 25.9781 8.8705 25.7011 9.17827C25.4272 9.48295 25.0763 9.71993 24.6485 9.8892C24.2207 10.0554 23.7314 10.1385 23.1805 10.1385ZM33.0355 10L30.3672 0.545454H32.2092L33.9126 7.49325H34.0004L35.8192 0.545454H37.495L39.3185 7.49787H39.4016L41.1051 0.545454H42.9471L40.2788 10H38.5891L36.6964 3.36612H36.6225L34.7251 10H33.0355ZM46.4302 10.1385C45.7377 10.1385 45.1376 9.98615 44.6298 9.68146C44.122 9.37678 43.728 8.95052 43.448 8.4027C43.171 7.85488 43.0325 7.21473 43.0325 6.48224C43.0325 5.74976 43.171 5.10807 43.448 4.55717C43.728 4.00627 44.122 3.57848 44.6298 3.27379C45.1376 2.96911 45.7377 2.81676 46.4302 2.81676C47.1227 2.81676 47.7228 2.96911 48.2306 3.27379C48.7385 3.57848 49.1309 4.00627 49.4078 4.55717C49.6879 5.10807 49.8279 5.74976 49.8279 6.48224C49.8279 7.21473 49.6879 7.85488 49.4078 8.4027C49.1309 8.95052 48.7385 9.37678 48.2306 9.68146C47.7228 9.98615 47.1227 10.1385 46.4302 10.1385ZM46.4395 8.79972C46.8149 8.79972 47.1288 8.69661 47.3812 8.49041C47.6336 8.28113 47.8213 8.00107 47.9444 7.65021C48.0706 7.29936 48.1337 6.9085 48.1337 6.47763C48.1337 6.04368 48.0706 5.65128 47.9444 5.30043C47.8213 4.9465 47.6336 4.66489 47.3812 4.45561C47.1288 4.24633 46.8149 4.14169 46.4395 4.14169C46.0547 4.14169 45.7347 4.24633 45.4792 4.45561C45.2269 4.66489 45.0376 4.9465 44.9114 5.30043C44.7883 5.65128 44.7267 6.04368 44.7267 6.47763C44.7267 6.9085 44.7883 7.29936 44.9114 7.65021C45.0376 8.00107 45.2269 8.28113 45.4792 8.49041C45.7347 8.69661 46.0547 8.79972 46.4395 8.79972ZM51.2464 10V2.90909H52.8667V4.09091H52.9406C53.0699 3.68158 53.2915 3.36612 53.6054 3.14453C53.9224 2.91986 54.284 2.80753 54.6903 2.80753C54.7826 2.80753 54.8857 2.81214 54.9996 2.82138C55.1165 2.82753 55.2135 2.8383 55.2904 2.85369V4.39098C55.2196 4.36636 55.1073 4.34482 54.9534 4.32635C54.8026 4.30481 54.6564 4.29403 54.5148 4.29403C54.2101 4.29403 53.9362 4.3602 53.6931 4.49254C53.453 4.6218 53.2638 4.80185 53.1253 5.03267C52.9868 5.26349 52.9175 5.52971 52.9175 5.83132V10H51.2464ZM58.0718 0.545454V10H56.4007V0.545454H58.0718ZM62.4217 10.1246C61.8646 10.1246 61.3661 9.98153 60.926 9.69531C60.4859 9.40909 60.1381 8.99361 59.8826 8.44886C59.6272 7.90412 59.4995 7.24242 59.4995 6.46378C59.4995 5.6759 59.6287 5.01113 59.8873 4.46946C60.1489 3.92472 60.5012 3.51385 60.9444 3.23686C61.3876 2.95679 61.8816 2.81676 62.4263 2.81676C62.8418 2.81676 63.1834 2.88755 63.4512 3.02912C63.7189 3.16761 63.9313 3.33535 64.0882 3.53232C64.2452 3.72621 64.3668 3.90933 64.4529 4.08168H64.5222V0.545454H66.198V10H64.5545V8.88281H64.4529C64.3668 9.05516 64.2421 9.23828 64.079 9.43217C63.9159 9.62299 63.7005 9.7861 63.4327 9.92152C63.165 10.0569 62.8279 10.1246 62.4217 10.1246ZM62.888 8.75355C63.2419 8.75355 63.5435 8.65814 63.7928 8.46733C64.0421 8.27344 64.2314 8.00414 64.3606 7.65945C64.4899 7.31475 64.5545 6.91312 64.5545 6.45455C64.5545 5.99598 64.4899 5.59742 64.3606 5.25888C64.2344 4.92034 64.0467 4.6572 63.7974 4.46946C63.5512 4.28172 63.248 4.18785 62.888 4.18785C62.5156 4.18785 62.2047 4.2848 61.9554 4.47869C61.7061 4.67259 61.5184 4.94034 61.3922 5.28196C61.266 5.62358 61.2029 6.01444 61.2029 6.45455C61.2029 6.89773 61.266 7.29321 61.3922 7.64098C61.5215 7.98568 61.7108 8.25805 61.96 8.4581C62.2124 8.65507 62.5217 8.75355 62.888 8.75355ZM69.4422 10L67.4387 2.90909H69.1421L70.3886 7.89489H70.4532L71.7274 2.90909H73.4124L74.6865 7.86719H74.7558L75.9838 2.90909H77.6919L75.6837 10H73.9433L72.6137 5.2081H72.5168L71.1872 10H69.4422ZM78.8587 10V2.90909H80.5298V10H78.8587ZM79.6989 1.9027C79.4342 1.9027 79.2064 1.81499 79.0156 1.63956C78.8248 1.46106 78.7294 1.24716 78.7294 0.997869C78.7294 0.745502 78.8248 0.531605 79.0156 0.356178C79.2064 0.177675 79.4342 0.088423 79.6989 0.088423C79.9666 0.088423 80.1944 0.177675 80.3821 0.356178C80.5729 0.531605 80.6683 0.745502 80.6683 0.997869C80.6683 1.24716 80.5729 1.46106 80.3821 1.63956C80.1944 1.81499 79.9666 1.9027 79.6989 1.9027ZM84.8797 10.1246C84.3227 10.1246 83.8241 9.98153 83.384 9.69531C82.9439 9.40909 82.5961 8.99361 82.3406 8.44886C82.0852 7.90412 81.9575 7.24242 81.9575 6.46378C81.9575 5.6759 82.0867 5.01113 82.3453 4.46946C82.6069 3.92472 82.9593 3.51385 83.4024 3.23686C83.8456 2.95679 84.3396 2.81676 84.8843 2.81676C85.2998 2.81676 85.6414 2.88755 85.9092 3.02912C86.1769 3.16761 86.3893 3.33535 86.5463 3.53232C86.7032 3.72621 86.8248 3.90933 86.911 4.08168H86.9802V0.545454H88.656V10H87.0125V8.88281H86.911C86.8248 9.05516 86.7001 9.23828 86.537 9.43217C86.3739 9.62299 86.1585 9.7861 85.8907 9.92152C85.623 10.0569 85.286 10.1246 84.8797 10.1246ZM85.346 8.75355C85.6999 8.75355 86.0015 8.65814 86.2508 8.46733C86.5001 8.27344 86.6894 8.00414 86.8186 7.65945C86.9479 7.31475 87.0125 6.91312 87.0125 6.45455C87.0125 5.99598 86.9479 5.59742 86.8186 5.25888C86.6924 4.92034 86.5047 4.6572 86.2554 4.46946C86.0092 4.28172 85.7061 4.18785 85.346 4.18785C84.9736 4.18785 84.6627 4.2848 84.4134 4.47869C84.1642 4.67259 83.9764 4.94034 83.8502 5.28196C83.724 5.62358 83.661 6.01444 83.661 6.45455C83.661 6.89773 83.724 7.29321 83.8502 7.64098C83.9795 7.98568 84.1688 8.25805 84.4181 8.4581C84.6704 8.65507 84.9797 8.75355 85.346 8.75355ZM93.576 10.1385C92.8651 10.1385 92.2511 9.99077 91.734 9.69531C91.2201 9.39678 90.8246 8.97514 90.5476 8.4304C90.2706 7.88258 90.1321 7.23781 90.1321 6.49609C90.1321 5.76669 90.2706 5.12654 90.5476 4.57564C90.8277 4.02166 91.2185 3.59079 91.7202 3.28303C92.2218 2.97218 92.8112 2.81676 93.4883 2.81676C93.9253 2.81676 94.3377 2.88755 94.7255 3.02912C95.1164 3.16761 95.4611 3.38305 95.7596 3.67543C96.0612 3.9678 96.2982 4.3402 96.4705 4.79261C96.6429 5.24195 96.729 5.77746 96.729 6.39915V6.91158H90.9169V5.78516H95.1271C95.1241 5.46508 95.0548 5.1804 94.9194 4.93111C94.784 4.67874 94.5947 4.48023 94.3516 4.33558C94.1115 4.19093 93.8314 4.11861 93.5114 4.11861C93.1697 4.11861 92.8697 4.2017 92.6112 4.3679C92.3526 4.53101 92.151 4.74645 92.0064 5.0142C91.8648 5.27888 91.7925 5.56972 91.7894 5.88672V6.87003C91.7894 7.28243 91.8648 7.63636 92.0156 7.93182C92.1664 8.22419 92.3772 8.44886 92.6481 8.60582C92.9189 8.75971 93.2359 8.83665 93.5991 8.83665C93.8422 8.83665 94.0623 8.80279 94.2592 8.73509C94.4562 8.6643 94.627 8.5612 94.7717 8.42578C94.9163 8.29036 95.0256 8.12263 95.0994 7.92259L96.6598 8.09801C96.5613 8.51042 96.3736 8.8705 96.0966 9.17827C95.8227 9.48295 95.4718 9.71993 95.044 9.8892C94.6162 10.0554 94.1269 10.1385 93.576 10.1385ZM106.579 3.14453C106.536 2.74136 106.355 2.42744 106.035 2.20277C105.718 1.9781 105.305 1.86577 104.797 1.86577C104.44 1.86577 104.134 1.91963 103.879 2.02734C103.623 2.13506 103.428 2.28125 103.293 2.46591C103.157 2.65057 103.088 2.86139 103.085 3.09837C103.085 3.29534 103.129 3.46615 103.219 3.6108C103.311 3.75544 103.436 3.87855 103.593 3.98011C103.75 4.0786 103.923 4.16169 104.114 4.2294C104.305 4.29711 104.497 4.35405 104.691 4.40021L105.578 4.6218C105.935 4.7049 106.278 4.81723 106.607 4.95881C106.94 5.10038 107.237 5.27888 107.498 5.49432C107.763 5.70975 107.972 5.96982 108.126 6.2745C108.28 6.57919 108.357 6.9362 108.357 7.34553C108.357 7.8995 108.215 8.38731 107.932 8.80895C107.649 9.22751 107.24 9.55528 106.704 9.79226C106.172 10.0262 105.527 10.1431 104.77 10.1431C104.034 10.1431 103.396 10.0292 102.854 9.80149C102.315 9.57375 101.894 9.24136 101.589 8.80433C101.287 8.36731 101.124 7.83487 101.1 7.20703H102.785C102.809 7.53634 102.911 7.81025 103.089 8.02876C103.268 8.24728 103.5 8.41039 103.786 8.51811C104.076 8.62583 104.399 8.67969 104.756 8.67969C105.128 8.67969 105.455 8.62429 105.735 8.51349C106.018 8.39962 106.239 8.24266 106.399 8.04261C106.559 7.83949 106.641 7.60251 106.644 7.33168C106.641 7.08546 106.569 6.88234 106.427 6.7223C106.286 6.55919 106.087 6.42377 105.832 6.31605C105.579 6.20526 105.284 6.10677 104.945 6.0206L103.87 5.74361C103.091 5.54356 102.475 5.24041 102.023 4.83416C101.574 4.42483 101.349 3.88163 101.349 3.20454C101.349 2.64749 101.5 2.15968 101.801 1.74112C102.106 1.32256 102.52 0.997869 103.043 0.767045C103.566 0.533144 104.159 0.416193 104.821 0.416193C105.492 0.416193 106.079 0.533144 106.584 0.767045C107.092 0.997869 107.49 1.31948 107.78 1.73189C108.069 2.14122 108.218 2.6121 108.228 3.14453H106.579ZM111.481 5.84517V10H109.81V0.545454H111.444V4.11399H111.527C111.693 3.7139 111.95 3.39844 112.298 3.16761C112.649 2.93371 113.095 2.81676 113.637 2.81676C114.129 2.81676 114.559 2.91986 114.925 3.12606C115.291 3.33227 115.574 3.63388 115.774 4.03089C115.977 4.42791 116.079 4.91264 116.079 5.48508V10H114.408V5.74361C114.408 5.26657 114.285 4.89571 114.039 4.63104C113.795 4.36328 113.454 4.2294 113.014 4.2294C112.718 4.2294 112.454 4.29403 112.22 4.4233C111.989 4.54948 111.807 4.7326 111.675 4.97266C111.546 5.21271 111.481 5.50355 111.481 5.84517ZM117.782 10V2.90909H119.454V10H117.782ZM118.623 1.9027C118.358 1.9027 118.13 1.81499 117.939 1.63956C117.749 1.46106 117.653 1.24716 117.653 0.997869C117.653 0.745502 117.749 0.531605 117.939 0.356178C118.13 0.177675 118.358 0.088423 118.623 0.088423C118.89 0.088423 119.118 0.177675 119.306 0.356178C119.497 0.531605 119.592 0.745502 119.592 0.997869C119.592 1.24716 119.497 1.46106 119.306 1.63956C119.118 1.81499 118.89 1.9027 118.623 1.9027ZM121.172 12.6591V2.90909H122.816V4.08168H122.913C122.999 3.90933 123.12 3.72621 123.277 3.53232C123.434 3.33535 123.647 3.16761 123.914 3.02912C124.182 2.88755 124.524 2.81676 124.939 2.81676C125.487 2.81676 125.981 2.95679 126.421 3.23686C126.864 3.51385 127.215 3.92472 127.474 4.46946C127.735 5.01113 127.866 5.6759 127.866 6.46378C127.866 7.24242 127.738 7.90412 127.483 8.44886C127.227 8.99361 126.88 9.40909 126.44 9.69531C125.999 9.98153 125.501 10.1246 124.944 10.1246C124.538 10.1246 124.201 10.0569 123.933 9.92152C123.665 9.7861 123.45 9.62299 123.286 9.43217C123.126 9.23828 123.002 9.05516 122.913 8.88281H122.843V12.6591H121.172ZM122.811 6.45455C122.811 6.91312 122.876 7.31475 123.005 7.65945C123.137 8.00414 123.326 8.27344 123.573 8.46733C123.822 8.65814 124.124 8.75355 124.478 8.75355C124.847 8.75355 125.156 8.65507 125.405 8.4581C125.655 8.25805 125.842 7.98568 125.969 7.64098C126.098 7.29321 126.163 6.89773 126.163 6.45455C126.163 6.01444 126.099 5.62358 125.973 5.28196C125.847 4.94034 125.659 4.67259 125.41 4.47869C125.161 4.2848 124.85 4.18785 124.478 4.18785C124.121 4.18785 123.817 4.28172 123.568 4.46946C123.319 4.6572 123.13 4.92034 123 5.25888C122.874 5.59742 122.811 5.99598 122.811 6.45455ZM129.297 12.6591V2.90909H130.941V4.08168H131.038C131.124 3.90933 131.245 3.72621 131.402 3.53232C131.559 3.33535 131.772 3.16761 132.039 3.02912C132.307 2.88755 132.649 2.81676 133.064 2.81676C133.612 2.81676 134.106 2.95679 134.546 3.23686C134.989 3.51385 135.34 3.92472 135.599 4.46946C135.86 5.01113 135.991 5.6759 135.991 6.46378C135.991 7.24242 135.863 7.90412 135.608 8.44886C135.352 8.99361 135.005 9.40909 134.565 9.69531C134.124 9.98153 133.626 10.1246 133.069 10.1246C132.663 10.1246 132.326 10.0569 132.058 9.92152C131.79 9.7861 131.575 9.62299 131.411 9.43217C131.251 9.23828 131.127 9.05516 131.038 8.88281H130.968V12.6591H129.297ZM130.936 6.45455C130.936 6.91312 131.001 7.31475 131.13 7.65945C131.262 8.00414 131.451 8.27344 131.698 8.46733C131.947 8.65814 132.249 8.75355 132.603 8.75355C132.972 8.75355 133.281 8.65507 133.53 8.4581C133.78 8.25805 133.967 7.98568 134.094 7.64098C134.223 7.29321 134.288 6.89773 134.288 6.45455C134.288 6.01444 134.224 5.62358 134.098 5.28196C133.972 4.94034 133.784 4.67259 133.535 4.47869C133.286 4.2848 132.975 4.18785 132.603 4.18785C132.246 4.18785 131.942 4.28172 131.693 4.46946C131.444 4.6572 131.255 4.92034 131.125 5.25888C130.999 5.59742 130.936 5.99598 130.936 6.45455ZM137.422 10V2.90909H139.093V10H137.422ZM138.262 1.9027C137.998 1.9027 137.77 1.81499 137.579 1.63956C137.388 1.46106 137.293 1.24716 137.293 0.997869C137.293 0.745502 137.388 0.531605 137.579 0.356178C137.77 0.177675 137.998 0.088423 138.262 0.088423C138.53 0.088423 138.758 0.177675 138.946 0.356178C139.136 0.531605 139.232 0.745502 139.232 0.997869C139.232 1.24716 139.136 1.46106 138.946 1.63956C138.758 1.81499 138.53 1.9027 138.262 1.9027ZM142.483 5.84517V10H140.812V2.90909H142.409V4.11399H142.492C142.655 3.71697 142.915 3.40151 143.272 3.16761C143.632 2.93371 144.077 2.81676 144.607 2.81676C145.096 2.81676 145.522 2.9214 145.885 3.13068C146.252 3.33996 146.535 3.64311 146.735 4.04013C146.938 4.43714 147.038 4.9188 147.035 5.48508V10H145.364V5.74361C145.364 5.26965 145.241 4.89879 144.994 4.63104C144.751 4.36328 144.414 4.2294 143.983 4.2294C143.691 4.2294 143.431 4.29403 143.203 4.4233C142.978 4.54948 142.801 4.7326 142.672 4.97266C142.546 5.21271 142.483 5.50355 142.483 5.84517ZM151.817 12.8068C151.217 12.8068 150.702 12.7253 150.271 12.5621C149.84 12.4021 149.494 12.1867 149.232 11.9158C148.971 11.645 148.789 11.3449 148.688 11.0156L150.192 10.6509C150.26 10.7894 150.359 10.9264 150.488 11.0618C150.617 11.2003 150.791 11.3142 151.01 11.4034C151.231 11.4957 151.51 11.5419 151.845 11.5419C152.319 11.5419 152.712 11.4265 153.022 11.1957C153.333 10.9679 153.489 10.5924 153.489 10.0692V8.72585H153.406C153.319 8.8982 153.193 9.07517 153.027 9.25675C152.864 9.43833 152.647 9.59067 152.376 9.71378C152.108 9.83688 151.771 9.89844 151.365 9.89844C150.82 9.89844 150.326 9.77071 149.883 9.51527C149.443 9.25675 149.092 8.87204 148.831 8.36115C148.572 7.84718 148.443 7.20395 148.443 6.43146C148.443 5.65282 148.572 4.99574 148.831 4.46023C149.092 3.92164 149.445 3.51385 149.888 3.23686C150.331 2.95679 150.825 2.81676 151.37 2.81676C151.785 2.81676 152.127 2.88755 152.395 3.02912C152.665 3.16761 152.881 3.33535 153.041 3.53232C153.201 3.72621 153.322 3.90933 153.406 4.08168H153.498V2.90909H155.146V10.1154C155.146 10.7217 155.001 11.2234 154.712 11.6204C154.423 12.0174 154.027 12.3144 153.526 12.5114C153.024 12.7083 152.455 12.8068 151.817 12.8068ZM151.831 8.58736C152.185 8.58736 152.487 8.50118 152.736 8.32884C152.985 8.15649 153.175 7.90874 153.304 7.58558C153.433 7.26243 153.498 6.87464 153.498 6.42223C153.498 5.97597 153.433 5.58511 153.304 5.24964C153.178 4.91418 152.99 4.65412 152.741 4.46946C152.495 4.28172 152.191 4.18785 151.831 4.18785C151.459 4.18785 151.148 4.2848 150.899 4.47869C150.65 4.67259 150.462 4.9388 150.336 5.27734C150.209 5.61281 150.146 5.99444 150.146 6.42223C150.146 6.85618 150.209 7.23627 150.336 7.5625C150.465 7.88565 150.654 8.13802 150.903 8.3196C151.156 8.49811 151.465 8.58736 151.831 8.58736Z"
        fill="url(#paint0_linear_465_2953)" />
    <defs>
        <linearGradient id="paint0_linear_465_2953" x1="-0.999999" y1="4.99999" x2="156"
            y2="4.99998" gradientUnits="userSpaceOnUse">
            <stop stop-color="#83CF38" />
            <stop offset="0.2" stop-color="#22BD72" />
            <stop offset="1" stop-color="#13C2A8" />
        </linearGradient>
    </defs>
</svg>
    