<svg id="Layer_1" data-name="Layer 1"
    xmlns="http://www.w3.org/2000/svg" viewBox="0 0 12 12">
    <defs>
        <style>.cls-2{fill: #fff; fill-opacity: 1;}</style>
    </defs>
    <path class="cls-3" d="M11.3,6A5.36,5.36,0,0,1,6,11.4,5.36,5.36,0,0,1,.7,6,5.36,5.36,0,0,1,6,.6,5.29,5.29,0,0,1,11.3,6"/>
    <path class="cls-3" d="M6,12a6,6,0,1,1,6-6,6,6,0,0,1-6,6M6,1.1A4.9,4.9,0,1,0,10.9,6,4.78,4.78,0,0,0,6,1.1"/>
    <path class="cls-2" d="M6.15,9.45h-.3a.43.43,0,0,1-.4-.4V3a.43.43,0,0,1,.4-.4h.3a.43.43,0,0,1,.4.4v6.1a.37.37,0,0,1-.4.4"/>
    <path class="cls-2" d="M2.55,6.15v-.3a.43.43,0,0,1,.4-.4h6.1a.43.43,0,0,1,.4.4v.3a.43.43,0,0,1-.4.4H3a.43.43,0,0,1-.4-.4"/>
</svg>