<svg width="22" height="20" viewBox="0 0 22 20" fill="none" xmlns="http://www.w3.org/2000/svg">
    <path
        d="M9.26795 2C10.0378 0.666666 11.9623 0.666667 12.7321 2L20.9593 16.25C21.7291 17.5833 20.7668 19.25 19.2272 19.25H2.77276C1.23316 19.25 0.270907 17.5833 1.04071 16.25L9.26795 2Z"
        fill="url(#paint0_linear_175_13098)" />
    <path
        d="M9.70096 2.25C10.2783 1.25 11.7217 1.25 12.299 2.25L20.5263 16.5C21.1036 17.5 20.3819 18.75 19.2272 18.75H2.77276C1.61806 18.75 0.89637 17.5 1.47372 16.5L9.70096 2.25Z"
        stroke="black" stroke-opacity="0.05" />
    <g filter="url(#filter0_d_175_13098)">
        <path d="M10 14H12V16H10V14Z" fill="black" />
        <path d="M10 14H12V16H10V14Z" fill="url(#paint1_linear_175_13098)" fill-opacity="0.16" />
        <path d="M10 6H12V12H10V6Z" fill="black" />
        <path d="M10 6H12V12H10V6Z" fill="url(#paint2_linear_175_13098)" fill-opacity="0.16" />
    </g>
    <defs>
        <filter id="filter0_d_175_13098" x="9" y="6" width="4" height="12"
            filterUnits="userSpaceOnUse" color-interpolation-filters="sRGB">
            <feFlood flood-opacity="0" result="BackgroundImageFix" />
            <feColorMatrix in="SourceAlpha" type="matrix"
                values="0 0 0 0 0 0 0 0 0 0 0 0 0 0 0 0 0 0 127 0" result="hardAlpha" />
            <feOffset dy="1" />
            <feGaussianBlur stdDeviation="0.5" />
            <feComposite in2="hardAlpha" operator="out" />
            <feColorMatrix type="matrix" values="0 0 0 0 0 0 0 0 0 0 0 0 0 0 0 0 0 0 0.2 0" />
            <feBlend mode="normal" in2="BackgroundImageFix" result="effect1_dropShadow_175_13098" />
            <feBlend mode="normal" in="SourceGraphic" in2="effect1_dropShadow_175_13098"
                result="shape" />
        </filter>
        <linearGradient id="paint0_linear_175_13098" x1="-2.5" y1="-1" x2="24.5" y2="26"
            gradientUnits="userSpaceOnUse">
            <stop stop-color="#FFD52B" />
            <stop offset="0.435" stop-color="#FFD31E" />
            <stop offset="1" stop-color="#FFAA00" />
        </linearGradient>
        <linearGradient id="paint1_linear_175_13098" x1="12" y1="6" x2="9.12479" y2="6.599"
            gradientUnits="userSpaceOnUse">
            <stop stop-color="white" stop-opacity="0" />
            <stop offset="1" stop-color="white" />
        </linearGradient>
        <linearGradient id="paint2_linear_175_13098" x1="12" y1="6" x2="9.12479" y2="6.599"
            gradientUnits="userSpaceOnUse">
            <stop stop-color="white" stop-opacity="0" />
            <stop offset="1" stop-color="white" />
        </linearGradient>
    </defs>
</svg>
    